<?xml version="1.0" encoding="UTF-8" standalone="no"?>
<!-- Created with Inkscape (http://www.inkscape.org/) -->

<svg
   xmlns:dc="http://purl.org/dc/elements/1.1/"
   xmlns:cc="http://creativecommons.org/ns#"
   xmlns:rdf="http://www.w3.org/1999/02/22-rdf-syntax-ns#"
   xmlns:svg="http://www.w3.org/2000/svg"
   xmlns="http://www.w3.org/2000/svg"
   xmlns:sodipodi="http://sodipodi.sourceforge.net/DTD/sodipodi-0.dtd"
   xmlns:inkscape="http://www.inkscape.org/namespaces/inkscape"
   width="45px"
   height="45px"
   viewBox="0 0 45 45"
   version="1.1"
   id="SVGRoot"
   inkscape:version="0.92.5 (2060ec1f9f, 2020-04-08)"
   sodipodi:docname="address.svg">
  <defs
     id="defs427" />
  <sodipodi:namedview
     id="base"
     pagecolor="#ffffff"
     bordercolor="#666666"
     borderopacity="1.0"
     inkscape:pageopacity="0.0"
     inkscape:pageshadow="2"
     inkscape:zoom="5.6888889"
     inkscape:cx="22.5"
     inkscape:cy="22.5"
     inkscape:document-units="px"
     inkscape:current-layer="layer1"
     showgrid="false"
     inkscape:window-width="1848"
     inkscape:window-height="1016"
     inkscape:window-x="72"
     inkscape:window-y="27"
     inkscape:window-maximized="1"
     inkscape:grid-bbox="true" />
  <metadata
     id="metadata430">
    <rdf:RDF>
      <cc:Work
         rdf:about="">
        <dc:format>image/svg+xml</dc:format>
        <dc:type
           rdf:resource="http://purl.org/dc/dcmitype/StillImage" />
        <dc:title></dc:title>
      </cc:Work>
    </rdf:RDF>
  </metadata>
  <g
     inkscape:label="Calque 1"
     inkscape:groupmode="layer"
     id="layer1">
    <path
       d="m 24.420359,42.314667 h -13.828 c -2.5919993,0 -4.6933333,-2.101333 -4.6933333,-4.692 V 20.404001 l -0.696,0.604 c -0.652,0.565334 -1.638666,0.496 -2.206666,-0.156 v 0 c -0.566667,-0.652 -0.496,-1.64 0.156,-2.206666 L 21.165693,3.0013335 c 0.485333,-0.421333 1.206666,-0.421333 1.692,0 l 11.074666,9.6186675 c -0.870667,-0.172 -1.770667,-0.262667 -2.690667,-0.262667 -0.636,0 -1.262666,0.044 -1.876,0.126667 -0.197333,0.02667 -0.394666,-0.02933 -0.545333,-0.16 l -6.352,-5.5160005 c -0.262666,-0.228 -0.652,-0.228 -0.913333,0 L 9.0270257,17.686668 v 19.935999 c 0,0.862667 0.701333,1.562667 1.5653333,1.562667 h 12.421334 c 0.232,0 0.454666,0.104 0.609333,0.273333 0.474667,0.525334 0.941333,1.014667 1.385333,1.464 0.513334,0.518667 0.141334,1.392 -0.588,1.392 z M 38.907026,26.557334 c 0,3.994667 -4.865334,9.170667 -7.66,11.668 -0.852,-0.765333 -2.148,-1.994667 -3.441334,-3.478666 -2.766666,-3.174667 -4.229333,-6.006667 -4.229333,-8.189334 v -0.282666 c 0,-4.224 3.438667,-7.66 7.665333,-7.66 4.226667,0 7.665334,3.436 7.665334,7.66 z M 31.241692,15.485335 c -5.951999,0 -10.794666,4.84 -10.794666,10.789333 v 0.282666 c 0,2.992 1.682667,6.438667 5,10.245333 2.370666,2.72 4.713333,4.621334 4.812,4.701334 l 0.982666,0.792 0.982667,-0.792 c 0.09867,-0.08 2.441333,-1.981334 4.812,-4.701334 3.317333,-3.806666 4.998666,-7.253333 4.998666,-10.245333 v -0.282666 c 0.0013,-5.948 -4.841333,-10.789333 -10.793333,-10.789333 z m 0,12.510666 c -0.862666,0 -1.565333,-0.702667 -1.565333,-1.564 0,-0.862667 0.702667,-1.565333 1.565333,-1.565333 0.862667,0 1.564,0.702666 1.564,1.565333 0,0.861333 -0.701333,1.564 -1.564,1.564 z m 0,-6.258666 c -2.588,0 -4.693333,2.106666 -4.693333,4.694666 0,2.586667 2.105333,4.693333 4.693333,4.693333 2.588,0 4.693334,-2.106666 4.693334,-4.693333 0,-2.588 -2.105334,-4.694666 -4.693334,-4.694666"
       style="fill:#434952;fill-opacity:1;fill-rule:nonzero;stroke:none;stroke-width:0.13333333"
       id="path66"
       inkscape:connector-curvature="0" />
  </g>
</svg>
