<?xml version="1.0" encoding="UTF-8" standalone="no"?>
<!-- Created with Inkscape (http://www.inkscape.org/) -->

<svg
   xmlns:dc="http://purl.org/dc/elements/1.1/"
   xmlns:cc="http://creativecommons.org/ns#"
   xmlns:rdf="http://www.w3.org/1999/02/22-rdf-syntax-ns#"
   xmlns:svg="http://www.w3.org/2000/svg"
   xmlns="http://www.w3.org/2000/svg"
   xmlns:sodipodi="http://sodipodi.sourceforge.net/DTD/sodipodi-0.dtd"
   xmlns:inkscape="http://www.inkscape.org/namespaces/inkscape"
   width="100px"
   height="100px"
   viewBox="0 0 100 100"
   version="1.1"
   id="SVGRoot"
   inkscape:version="0.92.5 (2060ec1f9f, 2020-04-08)"
   sodipodi:docname="litterature.svg">
  <defs
     id="defs829" />
  <sodipodi:namedview
     id="base"
     pagecolor="#ffffff"
     bordercolor="#666666"
     borderopacity="1.0"
     inkscape:pageopacity="0.0"
     inkscape:pageshadow="2"
     inkscape:zoom="5.12"
     inkscape:cx="72.067473"
     inkscape:cy="47.967319"
     inkscape:document-units="px"
     inkscape:current-layer="layer1"
     showgrid="false"
     inkscape:window-width="1848"
     inkscape:window-height="1016"
     inkscape:window-x="72"
     inkscape:window-y="27"
     inkscape:window-maximized="1"
     inkscape:grid-bbox="true" />
  <metadata
     id="metadata832">
    <rdf:RDF>
      <cc:Work
         rdf:about="">
        <dc:format>image/svg+xml</dc:format>
        <dc:type
           rdf:resource="http://purl.org/dc/dcmitype/StillImage" />
        <dc:title></dc:title>
      </cc:Work>
    </rdf:RDF>
  </metadata>
  <g
     inkscape:label="Calque 1"
     inkscape:groupmode="layer"
     id="layer1">
    <g
       id="g18"
       transform="matrix(0.00622927,0,0,-0.00622927,-40.088326,93.601173)">
      <path
         d="m 16059.9,9829.58 191.5,185.32 c -59.9,334.9 -374.2,496.2 -581.1,518.1 -557.3,59.2 -841.4,-324 -960.9,-938.48 -218.2,-1121.63 56.5,-5831.34 56.5,-5831.34 20.6,125.11 1534.1,4854.7 1495.3,6154.13 l -201.3,-87.73"
         style="fill:#96d9c9;fill-opacity:1;fill-rule:nonzero;stroke:none"
         id="path20"
         inkscape:connector-curvature="0" />
    </g>
    <path
       d="m 12.500329,55.407986 -0.147842,1.094365 -0.35425,-1.266138 c -0.995454,-0.313477 -1.860565,-0.42103 -2.5459954,-0.265056 -6.1252724,1.392041 4.4594864,9.816154 4.4594864,9.816154 0,0 -3.373403,-2.117878 -6.6403895,-3.458949 l -0.041492,1.109653 -0.4178907,-1.253904 c -2.5385784,-0.99344 -4.893741,-1.452697 -5.3643683,-0.01783 -0.4430445,1.350755 0.4485527,2.629126 1.9828067,3.767838 l 1.7636259,0.06171 -1.039616,0.436319 c 3.5431946,2.269265 9.4045909,3.89272 11.4276629,4.261755 C 13.646691,69.390109 8.91528,68.774368 6.1112008,69.379405 l 0.4400373,0.732467 -1.1072432,-0.553557 c -0.9814795,0.316541 -1.5910441,0.840522 -1.5253953,1.665763 0.1254924,1.578081 6.9720324,2.146426 6.9720324,2.146426 l 25.011871,-0.232433 0.139143,0.06983 c 0,0 -15.478092,-14.846052 -23.541316,-17.799868"
       style="fill:#3c8f7c;fill-opacity:1;fill-rule:nonzero;stroke:none;stroke-width:0.00509718"
       id="path22"
       inkscape:connector-curvature="0" />
    <g
       id="g24"
       transform="matrix(0.00809963,0,0,-0.00809963,-40.088326,93.601173)">
      <path
         d="m 16179.7,2913.15 c -59.6,276.52 -664.3,357.82 -1435.2,206.22 274.5,93.77 651.6,307.3 846.9,404.84 l -133.6,85.02 268.3,-12.52 c 219.4,128.5 329.1,254.68 257.4,368.84 -53.5,85.21 -171,120.7 -330.1,120.26 l -83.9,-150.03 17.4,147.95 c -401.5,-23.22 -492.6,42.35 -1034.3,-176.58 338.5,175.7 387.4,230.2 409.6,300.74 l -183.3,80.24 h 214.8 c 173.7,186.78 449.2,556.38 334.9,726.67 -94.3,140.59 -508.2,-54.5 -772.5,-155.88 l -112.4,-252.86 22.8,216.04 c -840.1,-365.94 -555.4,-72.3 -555.4,-72.3 0,0 877,1814.16 360.4,1773.38 -204,-16.1 -423.3,-139.03 -638.7,-335.97 l -5.5,-180.36 -64.1,114.47 c -156.8,-153.8 -312.2,-340.08 -460.5,-540.01 201.1,422.33 353.6,837.16 368.7,1146.01 l -153.5,18.61 151.5,105.36 c -14.2,156.05 -76.1,274.06 -201.2,336.45 -192.2,95.69 -393.7,-49.09 -592.2,-336.82 l 49,-259.68 -123.2,145.5 C 11891.2,5578.47 11241.4,2727 11241.4,2727 l -51.5,-154.69 2087.8,-103.08 c 0,0 3022.3,-114.72 2902,443.92"
         style="fill:#50bfa5;fill-opacity:1;fill-rule:nonzero;stroke:none"
         id="path26"
         inkscape:connector-curvature="0" />
    </g>
    <g
       id="g28"
       transform="matrix(0.00856454,0,0,-0.00856454,-40.088326,93.601173)">
      <path
         d="M 16266,2322.21 H 4966.33 c -18.78,0 -34,14.64 -34,32.73 0,18.04 15.22,32.68 34,32.68 H 16266 c 18.8,0 34,-14.64 34,-32.68 0,-18.09 -15.2,-32.73 -34,-32.73"
         style="fill:#184655;fill-opacity:1;fill-rule:nonzero;stroke:none"
         id="path30"
         inkscape:connector-curvature="0" />
    </g>
    <g
       id="g32"
       transform="matrix(0.00651409,0,0,-0.00651409,-40.088326,93.601173)">
      <path
         d="m 16300,4580.82 h -6088.7 c -232.52,0 -421.02,170.97 -421.02,382.01 v 227.15 c 0,210.96 188.5,382.01 421.02,382.01 H 16300 v 0 c -278.5,-276.14 -283.3,-698.29 -11.2,-979.67 l 11.2,-11.5"
         style="fill:#86b1f2;fill-opacity:1;fill-rule:nonzero;stroke:none"
         id="path34"
         inkscape:connector-curvature="0" />
    </g>
    <g
       id="g36"
       transform="matrix(0.0064801,0,0,-0.0064801,-40.088326,93.601173)">
      <path
         d="m 16299.8,5487.08 h -3080 c -212.1,0 -384.1,-171.95 -384.1,-384.09 v 0 c 0,-212.06 172,-384.01 384.1,-384.01 H 16300 c -143.9,235.58 -143.6,533.07 -0.2,768.1"
         style="fill:#fae0b2;fill-opacity:1;fill-rule:nonzero;stroke:none"
         id="path38"
         inkscape:connector-curvature="0" />
    </g>
    <g
       id="g40"
       transform="matrix(0.00641046,0,0,-0.00641046,-40.088326,93.601173)">
      <path
         d="m 16284.9,6763.17 c 13.6,23.3 -7,50.25 -38.3,50.25 h -4927.4 c -386.2,0 -699.2,-258.34 -699.2,-577.03 v 0 c 0,-318.77 313,-577.1 699.2,-577.1 h 4928.7 c 31.5,0 52.1,27.11 38.4,50.48 v 0 c -195.1,333.57 -194.6,721.35 -1.4,1053.4"
         style="fill:#355389;fill-opacity:1;fill-rule:nonzero;stroke:none"
         id="path42"
         inkscape:connector-curvature="0" />
    </g>
    <g
       id="g44"
       transform="matrix(0.00639187,0,0,-0.00639187,-40.088326,93.601173)">
      <path
         d="m 16292.9,6708.69 h -3315.5 c -244.9,0 -443.5,-198.48 -443.5,-443.46 v -33.25 c 0,-244.9 198.6,-443.46 443.5,-443.46 H 16300 c -148.6,294.89 -150.2,625.44 -7.1,920.17"
         style="fill:#fae0b2;fill-opacity:1;fill-rule:nonzero;stroke:none"
         id="path46"
         inkscape:connector-curvature="0" />
    </g>
    <g
       id="g48"
       transform="matrix(0.00549756,0,0,-0.00549756,-40.088326,93.601173)">
      <path
         d="m 11996.7,8004.62 h 3707.9 c 328.8,0 595.4,287.42 595.4,641.97 v 0 c 0,354.64 -266.6,642.05 -595.4,642.05 h -3707.9 v 0 c 283.5,-355.93 294.5,-878.01 26.5,-1247.58 l -26.5,-36.44"
         style="fill:#fae0b2;fill-opacity:1;fill-rule:nonzero;stroke:none"
         id="path50"
         inkscape:connector-curvature="0" />
    </g>
    <g
       id="g52"
       transform="matrix(0.00623778,0,0,-0.00623778,-40.088326,93.601173)">
      <path
         d="m 14322.7,7620.57 v 0 c 0,312.56 -237.6,565.86 -530.7,565.86 h -3278.2 c -15.3,0 -27.7,13.3 -27.6,29.6 v 0 c 0.2,16.08 12.5,29.03 27.6,29.03 h 5200.4 c 323.5,0 585.8,-279.57 585.8,-624.49 v 0 c 0,-344.84 -262.3,-624.47 -585.8,-624.47 h -5200.4 c -15.1,0 -27.4,13 -27.6,29.09 v 0 c -0.1,16.27 12.3,29.58 27.6,29.58 H 13792 c 293.1,0 530.7,253.32 530.7,565.8"
         style="fill:#466eb6;fill-opacity:1;fill-rule:nonzero;stroke:none"
         id="path54"
         inkscape:connector-curvature="0" />
    </g>
    <g
       id="g56"
       transform="matrix(0.00556974,0,0,-0.00556974,-40.088326,93.601173)">
      <path
         d="m 16300,7166.76 h -391.7 c -84.2,0 -152.5,-26.08 -152.5,-58.3 v -5.21 h 544.2 v 63.51"
         style="fill:#ff4c16;fill-opacity:1;fill-rule:nonzero;stroke:none"
         id="path58"
         inkscape:connector-curvature="0" />
    </g>
    <g
       id="g60"
       transform="matrix(0.00568412,0,0,-0.00568412,-40.088326,93.601173)">
      <path
         d="m 16299.4,6879.18 c 0,79.19 -100.3,143.39 -223.9,143.39 H 15583 c 93.8,0 169.8,-48.69 169.8,-108.68 l -2.3,-1536.84 272.1,197.64 277.4,-197.64 -0.6,1502.13"
         style="fill:#f47458;fill-opacity:1;fill-rule:nonzero;stroke:none"
         id="path62"
         inkscape:connector-curvature="0" />
    </g>
    <g
       id="g64"
       transform="matrix(0.00751458,0,0,-0.00751458,-40.088326,93.601173)">
      <path
         d="M 16300,3972.64 H 8457.41 c -243.52,0 -440.97,-197.39 -440.97,-440.9 v -370.96 c 0,-243.51 197.45,-440.97 440.97,-440.97 H 16300 l -4.1,4.27 c -335.5,349.26 -333.7,901.61 4.1,1248.56"
         style="fill:#b75742;fill-opacity:1;fill-rule:nonzero;stroke:none"
         id="path66"
         inkscape:connector-curvature="0" />
    </g>
    <g
       id="g68"
       transform="matrix(0.00745055,0,0,-0.00745055,-40.088326,93.601173)">
      <path
         d="m 16300,3819.73 h -4228.5 c -245.6,0 -444.8,-199.08 -444.8,-444.76 v 0 c 0,-245.6 199.2,-444.75 444.8,-444.75 h 4228.4 c -155.4,275.43 -155.1,614.35 0.1,889.51"
         style="fill:#fae0b2;fill-opacity:1;fill-rule:nonzero;stroke:none"
         id="path70"
         inkscape:connector-curvature="0" />
    </g>
    <g
       id="g72"
       transform="matrix(0.00650156,0,0,-0.00650156,-40.088326,93.601173)">
      <path
         d="m 16300,3865.01 h -393 c -84.5,0 -153.1,-68.52 -153.1,-153.04 v -13.72 h 546.1 v 166.76"
         style="fill:#13375b;fill-opacity:1;fill-rule:nonzero;stroke:none"
         id="path74"
         inkscape:connector-curvature="0" />
    </g>
    <g
       id="g76"
       transform="matrix(0.00706637,0,0,-0.00706637,-40.088326,93.601173)">
      <path
         d="m 14650.4,3555.52 c 86.4,0.07 215.4,-73.08 288.3,-163.32 l 857.5,-1063.6 503.8,0.29 -815.7,1011.52 c -95.9,119.02 -266.1,215.47 -380.1,215.39 l -453.8,-0.28"
         style="fill:#355389;fill-opacity:1;fill-rule:nonzero;stroke:none"
         id="path78"
         inkscape:connector-curvature="0" />
    </g>
    <path
       d="m 10.107187,72.337768 1.241674,-0.290029 c 0,0 1.007218,0.06371 1.94714,-0.12692 0,0 0.09478,0.249252 0.135582,0.765081 0.0072,0.0887 -0.120819,0.53164 -0.20901,0.545401 -0.319579,0.04894 -0.882314,-0.0066 -1.880337,0.01631 0,0 -1.571141,0.185543 -2.4119943,-0.09174 -0.8408213,-0.277793 1.1769453,-0.818094 1.1769453,-0.818094"
       style="fill:#b75742;fill-opacity:1;fill-rule:nonzero;stroke:none;stroke-width:0.00509718"
       id="path80"
       inkscape:connector-curvature="0" />
    <path
       d="m 23.826782,52.011734 c 0.06878,0.720737 0.67383,0.975089 1.23808,1.43078 0.378736,0.306338 0.313483,1.133612 0.02405,1.647407 -0.732954,1.300804 -0.108559,1.461364 0.482188,2.417086 1.423131,2.301884 -2.986426,2.810587 -3.509382,2.981849 -0.523482,0.171265 -0.87826,0.379232 -1.187656,0.34457 -0.933298,-0.102963 -1.786577,-1.429251 -2.260097,-2.655635 -0.474047,-1.22638 0.675907,-1.291113 0.735031,-1.995546 0.05859,-0.704428 -1.287054,-0.855814 -0.887949,-2.186179 0.431237,-1.439444 1.040867,-2.659201 1.849787,-3.097048 1.339025,-0.7238 2.966553,0.03313 3.33659,0.614718 0.110107,0.173306 0.164158,0.340494 0.179449,0.497998"
       style="fill:#184655;fill-opacity:1;fill-rule:nonzero;stroke:none;stroke-width:0.00509718"
       id="path82"
       inkscape:connector-curvature="0" />
    <path
       d="m 23.930232,67.768648 c 0.116239,0.288502 0.753882,1.309472 0.753882,1.309472 L 15.72991,69.1668 15.59024,67.329772 c 2.458363,-0.01986 4.888714,-1.106595 7.153885,-1.884428 0.05761,0.138644 1.130049,2.183124 1.186107,2.323294"
       style="fill:#fae0b2;fill-opacity:1;fill-rule:nonzero;stroke:none;stroke-width:0.00509718"
       id="path84"
       inkscape:connector-curvature="0" />
    <path
       d="m 17.582729,60.722818 c 0,0 0.481166,-3.394215 1.254394,-3.746429 0.77326,-0.352727 4.961614,0.135584 5.588052,0.518384 0.626965,0.382798 -0.416933,4.3693 -0.577004,5.484059 -0.0096,0.06678 -0.01977,0.133545 -0.03097,0.199807 -0.264543,1.609688 -0.111624,3.256589 0.456185,4.779623 -2.291702,0.695769 -2.886008,1.078565 -5.343877,1.010267 L 18.01252,63.600176 c 0,0 -0.729923,-2.598035 -0.429688,-2.877358"
       style="fill:#50bfa5;fill-opacity:1;fill-rule:nonzero;stroke:none;stroke-width:0.00509718"
       id="path86"
       inkscape:connector-curvature="0" />
    <path
       d="m 22.163035,54.742296 c 0,0 0.192697,1.868624 0.357842,2.326859 0.165147,0.458746 -0.442441,1.391023 -1.43282,1.648939 -0.990378,0.25843 -0.26965,-0.995478 -0.293083,-1.480221 -0.0234,-0.484231 -0.119269,-2.777963 -0.119269,-2.777963 l 1.48733,0.282386"
       style="fill:#f7a491;fill-opacity:1;fill-rule:nonzero;stroke:none;stroke-width:0.00509718"
       id="path88"
       inkscape:connector-curvature="0" />
    <path
       d="m 22.186501,54.956885 c -0.123358,0.140171 -0.272189,0.267094 -0.453154,0.373622 -0.374123,0.220711 -0.716641,0.269131 -1.012295,0.201339 -0.02439,-0.578019 -0.04534,-1.071936 -0.04534,-1.071936 l 1.48733,0.282386 c 0,0 0.0086,0.08206 0.0234,0.214589"
       style="fill:#f47458;fill-opacity:1;fill-rule:nonzero;stroke:none;stroke-width:0.00509718"
       id="path90"
       inkscape:connector-curvature="0" />
    <path
       d="m 21.816431,51.32922 c 0,0 0.584649,0.154447 0.928716,0.72482 0.343539,0.570377 0.534688,2.220332 -0.691693,2.943113 -1.226381,0.72278 -2.119899,-0.394014 -2.097488,-1.451679 0.02241,-1.057155 0.298685,-2.458881 1.860465,-2.216254"
       style="fill:#f7a491;fill-opacity:1;fill-rule:nonzero;stroke:none;stroke-width:0.00509718"
       id="path92"
       inkscape:connector-curvature="0" />
    <path
       d="m 19.583886,53.103042 c 0.01318,0.274224 0.153908,0.490344 0.312955,0.482191 0.159543,-0.0082 0.278318,-0.237528 0.264543,-0.51176 -0.01318,-0.274733 -0.153413,-0.490859 -0.312955,-0.482699 -0.159543,0.0082 -0.277825,0.237528 -0.264543,0.512268"
       style="fill:#f7a491;fill-opacity:1;fill-rule:nonzero;stroke:none;stroke-width:0.00509718"
       id="path94"
       inkscape:connector-curvature="0" />
    <path
       d="m 22.711004,53.523558 c -0.09633,0.271678 -0.02636,0.544887 0.155951,0.610641 0.183008,0.06524 0.409814,-0.101433 0.506674,-0.373114 0.09686,-0.271681 0.02702,-0.544888 -0.155984,-0.610642 -0.182974,-0.06525 -0.409815,0.101433 -0.506641,0.373115"
       style="fill:#f7a491;fill-opacity:1;fill-rule:nonzero;stroke:none;stroke-width:0.00509718"
       id="path96"
       inkscape:connector-curvature="0" />
    <path
       d="m 24.425175,57.494773 c 0,0 -0.714104,0.374641 -1.151964,1.420073 -0.437862,1.045432 1.053588,6.379125 1.371653,6.720633 0.318063,0.342024 1.19784,0.395037 1.347694,-0.43988 0.15038,-0.835435 -0.355767,-7.436794 -1.567383,-7.700826"
       style="fill:#3c8f7c;fill-opacity:1;fill-rule:nonzero;stroke:none;stroke-width:0.00509718"
       id="path98"
       inkscape:connector-curvature="0" />
    <path
       d="m 20.154233,56.780657 1.230995,7.394476 -4.792878,0.773244 -1.521505,-6.917384 c 0,0 3.943156,-1.596437 5.083388,-1.250336"
       style="fill:#9bc1f9;fill-opacity:1;fill-rule:nonzero;stroke:none;stroke-width:0.00509718"
       id="path100"
       inkscape:connector-curvature="0" />
    <path
       d="m 10.903386,57.00901 c 0.4577,-0.180441 0.957223,-0.226317 1.440466,-0.131507 0.897078,0.175342 2.322779,0.53877 2.89517,1.15349 0.863463,0.928197 1.662726,7.068264 1.662726,7.068264 L 13.176203,64.263828 10.903386,57.00901 v 0"
       style="fill:#9bc1f9;fill-opacity:1;fill-rule:nonzero;stroke:none;stroke-width:0.00509718"
       id="path102"
       inkscape:connector-curvature="0" />
    <path
       d="m 23.721256,69.658178 c -0.626439,-1.740183 -7.725815,-8.074444 -9.605132,-7.587163 l 1.009231,3.863159 c 0,0 2.109221,6.288392 4.176126,7.099866 2.066905,0.810959 4.002314,-0.104491 4.002314,-0.104491 0,0 1.043899,-1.531702 0.417461,-3.271371"
       style="fill:#f7cc7f;fill-opacity:1;fill-rule:nonzero;stroke:none;stroke-width:0.00509718"
       id="path104"
       inkscape:connector-curvature="0" />
    <path
       d="m 21.172163,59.495416 c -0.08819,0.176872 0.476057,0.492387 0.640213,0.612168 0.164125,0.119277 0.844579,-0.0036 0.844579,-0.0036 0,0 -1.386417,-0.805356 -1.484792,-0.608606"
       style="fill:#f7a491;fill-opacity:1;fill-rule:nonzero;stroke:none;stroke-width:0.00509718"
       id="path106"
       inkscape:connector-curvature="0" />
    <path
       d="m 15.106503,67.774259 c 0,0 -1.803878,3.748976 -1.810008,4.139419 -0.0086,0.562224 -2.608646,0.407776 -2.043968,0.167703 0.129981,-0.05554 0.539269,-0.262513 0.57038,-0.290035 0.168211,-0.144247 1.66523,-4.800014 1.66523,-4.800014 l 1.618366,0.782927"
       style="fill:#f48c7f;fill-opacity:1;fill-rule:nonzero;stroke:none;stroke-width:0.00509718"
       id="path108"
       inkscape:connector-curvature="0" />
    <path
       d="m 15.681991,63.289252 c -0.08717,-0.09634 -1.001616,-0.459773 -1.705536,0.417452 -0.703393,0.876716 -2.053129,7.702862 -2.053129,7.702862 l 1.659133,0.162604 c 0,0 4.12923,-6.044241 2.099532,-8.282918"
       style="fill:#f7cc7f;fill-opacity:1;fill-rule:nonzero;stroke:none;stroke-width:0.00509718"
       id="path110"
       inkscape:connector-curvature="0" />
    <path
       d="m 10.315275,58.17066 2.134071,6.222131 c 0.08562,0.249755 0.298686,0.429177 0.552023,0.464861 2.001157,0.282892 3.045056,0.42714 3.045056,0.42714 0,0 0.390437,0.01986 0.804338,0.02547 l 4.58034,-0.488826 c 0.398575,-0.04284 0.6764,-0.428667 0.601951,-0.835932 L 20.91833,57.876015 c -0.06881,-0.377702 -0.415945,-0.629504 -0.781927,-0.567825 l -4.406493,0.74062 c -0.389448,-0.01019 -0.768679,-0.02089 -1.158622,-0.03108 l -3.466571,-0.7763 c -0.523911,-0.117236 -0.968824,0.406246 -0.789442,0.929218"
       style="fill:#f47458;fill-opacity:1;fill-rule:nonzero;stroke:none;stroke-width:0.00509718"
       id="path112"
       inkscape:connector-curvature="0" />
    <path
       d="m 19.637408,61.196854 c 0,0 1.229412,0.227844 1.649443,0.215615 0.419505,-0.01276 0.963881,0.119779 0.963881,0.119779 0,0 1.372148,3.226522 1.568899,3.586379 0.587713,1.074486 2.217285,0.947566 2.190261,0.05149 -0.02142,-0.711565 -2.804473,-5.176697 -3.544579,-5.154271 -0.739613,0.02245 -3.055767,-0.460785 -3.125603,-0.166166 -0.0372,0.158014 2.133181,0.231921 1.790663,0.366487 -0.212569,0.0836 -1.911449,-0.10755 -1.905351,0.09277 0.0062,0.19981 1.534755,0.218671 1.699405,0.373622 0.164652,0.155466 -1.627,-0.189615 -1.616816,0.149856 0.0055,0.17076 1.578587,0.0474 1.750884,0.306854 0.07136,0.107544 -1.551068,-0.278309 -1.421087,0.0576"
       style="fill:#f7a491;fill-opacity:1;fill-rule:nonzero;stroke:none;stroke-width:0.00509718"
       id="path114"
       inkscape:connector-curvature="0" />
    <path
       d="m 11.347838,60.670315 c -0.09633,-0.04129 -0.208483,0.01275 -0.231915,0.1152 -0.02439,0.104489 -0.02966,0.2309 0.04792,0.314491 0.154434,0.165662 1.229444,0.324181 1.235542,0.164136 0.0039,-0.122848 -0.717169,-0.449065 -1.051546,-0.593827"
       style="fill:#f7a491;fill-opacity:1;fill-rule:nonzero;stroke:none;stroke-width:0.00509718"
       id="path116"
       inkscape:connector-curvature="0" />
    <path
       d="m 11.13886,61.088286 c 0,0 -0.107538,0.40268 -0.01417,0.406241 0.09327,0.0037 1.25647,0.118769 1.308443,-0.01986 0.05148,-0.138135 -1.144318,-0.467924 -1.294172,-0.386366"
       style="fill:#f7a491;fill-opacity:1;fill-rule:nonzero;stroke:none;stroke-width:0.00509718"
       id="path118"
       inkscape:connector-curvature="0" />
    <path
       d="m 11.088898,61.504216 c 0,0 -0.03313,0.17891 0.06321,0.282382 0.09633,0.10347 1.179484,0.03567 1.219262,-0.136099 0.03974,-0.172279 -1.244243,-0.278302 -1.282473,-0.146283"
       style="fill:#f7a491;fill-opacity:1;fill-rule:nonzero;stroke:none;stroke-width:0.00509718"
       id="path120"
       inkscape:connector-curvature="0" />
    <path
       d="m 11.254043,61.882423 c 0,0 0,0.137118 0.05302,0.195734 0.05454,0.05859 0.854795,-0.02291 0.934319,-0.193698 0.07952,-0.170244 -0.894046,-0.178905 -0.987347,-0.0019"
       style="fill:#f7a491;fill-opacity:1;fill-rule:nonzero;stroke:none;stroke-width:0.00509718"
       id="path122"
       inkscape:connector-curvature="0" />
    <path
       d="m 13.967788,71.345857 c 0,0 -0.381771,1.382863 -0.765582,2.296787 -0.251295,0.598916 -0.316021,1.195287 -0.482187,1.493982 -0.420527,0.755405 -1.108133,0.78599 -1.654059,0.332337 -0.545728,-0.454157 0.186567,-2.36815 0.186567,-2.36815 l 1.723367,-2.42473 0.991894,0.669774"
       style="fill:#f7a491;fill-opacity:1;fill-rule:nonzero;stroke:none;stroke-width:0.00509718"
       id="path124"
       inkscape:connector-curvature="0" />
    <path
       d="m 12.720019,75.136626 c 0.14781,-0.265054 0.216095,-0.766103 0.4052,-1.293664 -0.26352,0.152916 -0.70593,0.268111 -0.946546,0.203885 -0.881787,-0.235995 -0.926146,-0.946034 -0.926146,-0.946034 0,0 -0.919291,1.961904 -0.373299,2.415552 0.546091,0.453653 1.420264,0.375666 1.840791,-0.379739"
       style="fill:#f47458;fill-opacity:1;fill-rule:nonzero;stroke:none;stroke-width:0.00509718"
       id="path126"
       inkscape:connector-curvature="0" />
    <path
       d="m 15.730405,58.048836 1.410904,7.30426 -0.849193,-0.05099 -0.245691,-0.01731 -1.474115,-7.266543 1.158095,0.03058"
       style="fill:#b75742;fill-opacity:1;fill-rule:nonzero;stroke:none;stroke-width:0.00509718"
       id="path128"
       inkscape:connector-curvature="0" />
    <path
       d="m 20.646637,72.606894 c 0.483209,0.88895 1.446069,1.027083 2.31309,0.95419 0.958773,-0.08053 2.014406,-0.60503 2.297833,-1.705512 0.302772,-1.175921 -0.09534,-2.630656 -0.793662,-3.553249 -3.573119,-4.721007 -3.600638,-5.186378 -5.023243,-5.813843 -1.535809,-0.676908 -7.239044,9.066355 -7.239044,9.066355 l 1.566393,0.80026 c 0,0 2.34875,-1.963435 3.84989,-3.685261 0.17635,-0.20236 0.678939,-1.249319 0.678939,-1.249319 0,0 2.030224,4.598676 2.349804,5.186379"
       style="fill:#fae0b2;fill-opacity:1;fill-rule:nonzero;stroke:none;stroke-width:0.00509718"
       id="path130"
       inkscape:connector-curvature="0" />
    <g
       id="g206"
       transform="matrix(0.00697754,0,0,-0.00697754,-40.088326,93.601173)">
      <path
         d="m 15264.8,6199.38 c 0,0 426.6,-185.92 464.2,-194.17 23.6,-5.19 294.8,275.84 442.6,385.63 6.8,5.12 33.1,42.45 40.4,46.17 88,44.2 -60.7,-210.31 -60.7,-210.31 0,0 -314.5,-400.03 -385.7,-434.29 -89.3,-43.03 -531.1,175.32 -528.4,187.96 l 27.6,219.01"
         style="fill:#f48c7f;fill-opacity:1;fill-rule:nonzero;stroke:none"
         id="path208"
         inkscape:connector-curvature="0" />
    </g>
    <g
       id="g210"
       transform="matrix(0.00655212,0,0,-0.00655212,-40.088326,93.601173)">
      <path
         d="m 16183.9,7027.11 c 19.5,133.89 112.4,418.85 26.7,532.82 -120.6,160.25 -375.3,153.33 -495.6,-0.63 -55.2,-70.63 -85,-157.14 -114.1,-241.86 -18.8,-54.69 -37.8,-109.69 -64.2,-161.19 -23.7,-46.05 -50.7,-103.62 -95.7,-131.7 -200,-124.55 -424.1,-204.84 -438.5,-485.44 -17.1,-332.81 347.5,-749.24 795.3,-547.68 171.3,77.17 395.9,326.66 469.1,499.29 33.1,77.87 17.2,69.7 -1,188.26 -16.3,106.19 -97.8,240.31 -82,348.13"
         style="fill:#184655;fill-opacity:1;fill-rule:nonzero;stroke:none"
         id="path212"
         inkscape:connector-curvature="0" />
    </g>
    <g
       id="g214"
       transform="matrix(0.00665198,0,0,-0.00665198,-40.088326,93.601173)">
      <path
         d="m 15700.9,6725.51 599.1,-329.64 -141.3,-214.48 c 0,0 -451,171.87 -542.2,196.47 -91.2,24.67 -19.4,356.62 84.4,347.65"
         style="fill:#355389;fill-opacity:1;fill-rule:nonzero;stroke:none"
         id="path216"
         inkscape:connector-curvature="0" />
    </g>
    <g
       id="g218"
       transform="matrix(0.00649646,0,0,-0.00649646,-40.088326,93.601173)">
      <path
         d="m 16066.3,7179.32 c 0,0 -16,-233.58 -27.9,-299.09 -12.3,-67.63 -19.8,-349.39 120.9,-383.83 140.7,-34.37 87.9,347.11 90.3,415.53 2.2,68.42 16,290.62 16,290.62 l -199.3,-23.23"
         style="fill:#f7a491;fill-opacity:1;fill-rule:nonzero;stroke:none"
         id="path220"
         inkscape:connector-curvature="0" />
    </g>
    <g
       id="g222"
       transform="matrix(0.00648276,0,0,-0.00648276,-40.088326,93.601173)">
      <path
         d="m 16098.2,7166.42 c 10.6,-15.73 23.3,-30.9 38.4,-45.13 52,-48.99 105.4,-64.95 154.2,-58.58 4.4,77.61 9.2,155.05 9.2,155.05 l -199.8,-23.27 c 0,0 -0.8,-10.62 -2,-28.07"
         style="fill:#f47458;fill-opacity:1;fill-rule:nonzero;stroke:none"
         id="path224"
         inkscape:connector-curvature="0" />
    </g>
    <g
       id="g226"
       transform="matrix(0.00655019,0,0,-0.00655019,-40.088326,93.601173)">
      <path
         d="m 16078.7,7563.92 c 0,0 -84.8,-2.8 -149.8,-69.8 -64.9,-67 -142.6,-286.06 2.6,-423.1 145.3,-137.03 289,-19.3 318.9,125.6 30,144.9 49.6,351.42 -171.7,367.3"
         style="fill:#f7a491;fill-opacity:1;fill-rule:nonzero;stroke:none"
         id="path228"
         inkscape:connector-curvature="0" />
    </g>
    <g
       id="g230"
       transform="matrix(0.00649325,0,0,-0.00649325,-40.088326,93.601173)">
      <path
         d="m 16300,7623.35 c 0,0 -89.3,-230.48 -300.3,-211.01 -95.5,8.79 -117.2,-121.68 -117.2,-121.68 0,0 78.2,309.84 176.4,355.92 98.1,46 241.1,-23.23 241.1,-23.23"
         style="fill:#184655;fill-opacity:1;fill-rule:nonzero;stroke:none"
         id="path232"
         inkscape:connector-curvature="0" />
    </g>
    <g
       id="g234"
       transform="matrix(0.00638637,0,0,-0.00638637,-40.088326,93.601173)">
      <path
         d="m 16295.1,7479.73 c 4.9,-41.11 -13.6,-77.1 -41.4,-80.46 -27.8,-3.27 -54.3,27.38 -59.1,68.48 -4.9,41.11 13.6,77.1 41.4,80.37 27.8,3.36 54.3,-27.29 59.1,-68.39"
         style="fill:#f7a491;fill-opacity:1;fill-rule:nonzero;stroke:none"
         id="path236"
         inkscape:connector-curvature="0" />
    </g>
    <g
       id="g238"
       transform="matrix(0.00714568,0,0,-0.00714568,-40.088326,93.601173)">
      <path
         d="m 15988.4,6616.07 -472.1,-964.7 c -11.2,-22.96 -7.7,-49.71 7.7,-58.78 l 344.9,-201.94 431.1,854.85 c 0,0 -187.8,281.05 -258.3,386.41 -13,19.47 -39.9,11.48 -53.3,-15.84"
         style="fill:#b75742;fill-opacity:1;fill-rule:nonzero;stroke:none"
         id="path240"
         inkscape:connector-curvature="0" />
    </g>
    <g
       id="g242"
       transform="matrix(0.00712244,0,0,-0.00712244,-40.088326,93.601173)">
      <path
         d="m 15627.8,5701.68 412.1,842.11 c 13.5,27.41 40.4,35.49 53.5,15.89 57.4,-85.88 144.2,-215.7 206.6,-309.02 l -388.2,-769.83 -276.3,161.81 c -15.5,9.09 -19,35.92 -7.7,59.04"
         style="fill:#fae0b2;fill-opacity:1;fill-rule:nonzero;stroke:none"
         id="path244"
         inkscape:connector-curvature="0" />
    </g>
    <g
       id="g246"
       transform="matrix(0.00696668,0,0,-0.00696668,-40.088326,93.601173)">
      <path
         d="m 16207.3,6465.89 c 5,8.7 27.9,27.51 37.6,30.07 20.4,5.41 45.1,4.61 49.2,-8.49 5.9,-19.17 -54.5,-40.39 -54.5,-40.39 l -32.8,-47.63 c 0,0 -15.4,38.93 0.5,66.44"
         style="fill:#f48c7f;fill-opacity:1;fill-rule:nonzero;stroke:none"
         id="path248"
         inkscape:connector-curvature="0" />
    </g>
    <g
       id="g250"
       transform="matrix(0.00652817,0,0,-0.00652817,-40.088326,93.601173)">
      <path
         d="m 15970.6,6909.54 c 0,0 159.1,-131.41 204.7,-177.08 45.4,-45.29 124.7,-100.65 124.7,-100.65 l -128.7,177.95 -81.4,76.05 -119.3,23.73"
         style="fill:#f7a491;fill-opacity:1;fill-rule:nonzero;stroke:none"
         id="path252"
         inkscape:connector-curvature="0" />
    </g>
    <g
       id="g254"
       transform="matrix(0.00725976,0,0,-0.00725976,-40.088326,93.601173)">
      <path
         d="m 16137,4319.19 c -22.1,18.47 -42.4,71.2 -50.6,94.3 -48.1,248.9 -275.4,922.01 -523.1,922.01 -215.6,0 -882,-522.58 -1193.6,-824.56 -90,-87.2 -83.9,-13.2 -28.8,-33.56 32.9,-12.15 255.4,-382.23 291,-383.84 108.8,-4.99 209.5,67.89 300.2,118.58 138.5,77.31 234.8,165.42 315.2,285.55 203.8,304.23 280.2,483.27 341.6,599.75 0,0 57.9,-239.49 86.3,-297.28 64.2,-130.38 255.8,-451.67 330.8,-576.85 l 294,8 c 0,0 -134.2,63.89 -163,87.9"
         style="fill:#f48c7f;fill-opacity:1;fill-rule:nonzero;stroke:none"
         id="path256"
         inkscape:connector-curvature="0" />
    </g>
    <g
       id="g258"
       transform="matrix(0.00738862,0,0,-0.00738862,-40.088326,93.601173)">
      <path
         d="m 15310.8,5105.87 c 0,0 -970.3,-452.21 -1031.6,-607.63 -61.2,-155.43 -14.1,-386.26 127.2,-433.38 141.3,-47.12 1017.5,701.87 1017.5,701.87 0,0 113,-207.3 273.2,-348.59 85.4,-75.33 229.7,-136.8 312,-191.92 72.1,-48.36 88.4,-95.41 88.4,-95.41 l 202.5,-9.38 c 0,0 -34.1,11.66 -95.4,94.16 -206.8,278.71 -686.6,926.64 -893.8,890.28"
         style="fill:#f7a491;fill-opacity:1;fill-rule:nonzero;stroke:none"
         id="path260"
         inkscape:connector-curvature="0" />
    </g>
    <g
       id="g262"
       transform="matrix(0.0069395,0,0,-0.0069395,-40.088326,93.601173)">
      <path
         d="m 15902.9,5496.45 c 0,0 331.9,-357.71 397.1,-829.19 0,0 -520,-223.96 -775.7,-359.4 -255.8,-135.37 -541.7,4.99 -631.9,155.5 -90.3,150.43 0,574.24 0,574.24 l 531.6,82.71 478.9,376.14"
         style="fill:#13375b;fill-opacity:1;fill-rule:nonzero;stroke:none"
         id="path264"
         inkscape:connector-curvature="0" />
    </g>
    <g
       id="g266"
       transform="matrix(0.00734942,0,0,-0.00734942,-40.088326,93.601173)">
      <path
         d="m 15759.4,4256.24 c -24.9,9.5 -33.7,-116.79 -37.7,-144.95 -4.7,-31.7 10.4,-53.2 14.3,-55.83 10.3,-7.14 412.6,-15.12 489.5,5.55 5.2,1.39 16.1,7.9 18,9.57 56.5,49.31 -204.9,180.04 -257.5,169.09 -46.9,-9.78 -114.3,-26.22 -226.6,16.57"
         style="fill:#355389;fill-opacity:1;fill-rule:nonzero;stroke:none"
         id="path268"
         inkscape:connector-curvature="0" />
    </g>
    <g
       id="g270"
       transform="matrix(0.00661115,0,0,-0.00661115,-40.088326,93.601173)">
      <path
         d="m 15761,6761.78 c 0,0 -85,0.77 -176,-195.21 -111.9,-240.86 47.7,-1160.04 36.1,-1291.19 0,0 39.4,-45.33 269,-78.49 203.4,-29.37 318.4,115.89 318.4,115.89 0,0 -51.8,354.89 26.6,688.73 42.5,180.95 64.9,356.35 -102.9,518.95 -168,162.68 -371.2,241.32 -371.2,241.32"
         style="fill:#466eb6;fill-opacity:1;fill-rule:nonzero;stroke:none"
         id="path272"
         inkscape:connector-curvature="0" />
    </g>
    <g
       id="g274"
       transform="matrix(0.00749862,0,0,-0.00749862,-40.088326,93.601173)">
      <path
         d="m 15776.9,4163.88 c -24.5,9.31 -45.6,-109.92 -43.7,-139.08 1.9,-31.33 9.8,-54.11 13.6,-56.69 10.1,-7 404.8,-12.78 480.2,7.48 5.1,1.36 15.8,7.75 17.7,9.38 55.3,48.33 -229.6,169.19 -281.2,158.45 -45.9,-9.52 -76.6,-21.48 -186.6,20.46"
         style="fill:#466eb6;fill-opacity:1;fill-rule:nonzero;stroke:none"
         id="path276"
         inkscape:connector-curvature="0" />
    </g>
    <g
       id="g278"
       transform="matrix(0.0073038,0,0,-0.0073038,-40.088326,93.601173)">
      <path
         d="m 15926.8,6511.93 -765.6,-1114.72 c -17.7,-25.69 -13.5,-57.02 8.7,-65.26 l 517.8,-192.96 612.3,877.8 -305.5,506.24 c -13.8,22.82 -48.3,17.17 -67.7,-11.1"
         style="fill:#f47458;fill-opacity:1;fill-rule:nonzero;stroke:none"
         id="path280"
         inkscape:connector-curvature="0" />
    </g>
    <g
       id="g282"
       transform="matrix(0.00705929,0,0,-0.00705929,-40.088326,93.601173)">
      <path
         d="m 16290,5862.98 c -10.1,19.64 -92.4,-23.98 -92.4,-23.98 0,0 -73.2,-12.7 -78.4,-9.96 -5.9,3.03 49.2,7.65 49.2,7.65 0,0 89.9,30.76 88.9,40.8 -4.1,41.52 -60.4,-10.11 -104.6,-11.99 -33.6,-1.44 -70.3,0 -102.7,4.63 -13,7.29 20,23.61 20,23.61 0,0 43.3,19.42 36.3,30.83 -16.8,27.58 -117.9,-24.91 -139.2,-44.41 -14.3,-13.07 -32.1,-38.41 -56.9,-52.49 -108.1,-61.09 -237.7,-166 -390.5,-239.58 -50.6,42.53 -539.1,480.89 -551.4,491.57 l -266.8,-210.11 c 0.4,-0.29 765.3,-582.91 807.9,-581.54 53.4,1.8 372,337.99 458.2,418.14 13,12.13 94.9,21.23 117.4,18.05 50.1,-6.93 143.9,32.35 143.9,32.35 28.9,30.54 -106.6,-0.36 -93.7,7.65 5.7,3.47 38.7,6.86 71.7,11.55 33.6,4.84 64,24.05 68,33.22 8.1,17.98 -75.4,-7.8 -75.4,-7.8 l -69.5,-4.33 66.5,13.57 c 0,0 103.5,33.43 93.5,52.57"
         style="fill:#f7a491;fill-opacity:1;fill-rule:nonzero;stroke:none"
         id="path284"
         inkscape:connector-curvature="0" />
    </g>
    <g
       id="g286"
       transform="matrix(0.0065879,0,0,-0.0065879,-40.088326,93.601173)">
      <path
         d="m 15959,6657.54 c -92.4,94.62 -270.2,80.85 -322,-54.16 -14.4,-37.53 -13.8,-145.31 2.7,-184.92 65.7,-158.46 449,-417.35 449,-417.35 l 211.3,287.9 -341,368.53"
         style="fill:#86b1f2;fill-opacity:1;fill-rule:nonzero;stroke:none"
         id="path288"
         inkscape:connector-curvature="0" />
    </g>
    <path
       d="m 40.025602,31.600577 c 0,-0.08003 0.09838,-0.59586 0.09838,-0.59586 0,0 -0.229378,-0.731446 -0.25281,-0.732974 -0.472499,-0.03416 -0.828793,0.286969 -0.749302,0.718703 l 0.0045,0.01427 c 0.244637,0.78089 0.902681,1.360437 1.70804,1.504687 0.183503,0.03314 0.377716,0.06779 0.577005,0.102454 C 41.317625,32.29838 41.260045,31.978276 41.26311,31.649 40.572933,31.644 40.025491,31.63014 40.025491,31.60057"
       style="fill:#f7a491;fill-opacity:1;fill-rule:nonzero;stroke:none;stroke-width:0.00509718"
       id="path290"
       inkscape:connector-curvature="0" />
    <g
       id="g292"
       transform="matrix(0.00540565,0,0,-0.00540565,-40.088326,93.601173)">
      <path
         d="m 16298.2,12066.7 c -2.4,7.2 -768.3,-490.9 -768.3,-490.9 0,0 -326.9,-3.2 -568.4,-1.2 -0.6,-72.9 11.2,-143.9 30.4,-213.4 238.6,-45.1 510.5,-92.8 572.3,-88 115.3,8.8 693.3,297.2 693.3,297.2 0,0 42.5,490.9 40.7,496.3"
         style="fill:#355389;fill-opacity:1;fill-rule:nonzero;stroke:none"
         id="path294"
         inkscape:connector-curvature="0" />
    </g>
    <g
       id="g296"
       transform="matrix(0.00552488,0,0,-0.00552488,-40.088326,93.601173)">
      <path
         d="m 15954.8,9986.23 c -1.6,12.24 -159.9,555.17 -176.4,1041.47 -12.9,377.1 103.9,715.2 163.7,776.9 22.2,23.1 227.9,72.5 227.9,72.5 l -74.9,-124.4 c -76.1,-143.7 -96.8,-271 -129.8,-433.1 -95.9,-470.3 334.7,-1411.29 312.8,-1417.36 -24.4,-6.78 -317.2,35.83 -323.3,83.99"
         style="fill:#466eb6;fill-opacity:1;fill-rule:nonzero;stroke:none"
         id="path298"
         inkscape:connector-curvature="0" />
    </g>
    <path
       d="m 38.98681,27.942332 -0.726363,0.474036 2.172432,3.656718 0.683025,-2.969108 -2.129094,-1.161646"
       style="fill:#9bc1f9;fill-opacity:1;fill-rule:nonzero;stroke:none;stroke-width:0.00509718"
       id="path300"
       inkscape:connector-curvature="0" />
    <path
       d="m 39.436372,27.366857 0.912897,3.034863 0.731471,-1.310993 z"
       style="fill:#9bc1f9;fill-opacity:1;fill-rule:nonzero;stroke:none;stroke-width:0.00509718"
       id="path302"
       inkscape:connector-curvature="0" />
    <g
       id="g304"
       transform="matrix(0.0052919,0,0,-0.0052919,-40.088326,93.601173)">
      <path
         d="m 16167.3,12582.4 132.7,-481.6 -977.9,88.8 845.2,392.8"
         style="fill:#9bc1f9;fill-opacity:1;fill-rule:nonzero;stroke:none"
         id="path306"
         inkscape:connector-curvature="0" />
    </g>
    <path
       d="m 42.515076,37.798242 c 0,0 -2.199423,2.686722 -2.205553,3.077168 -0.0086,0.56222 -2.608217,0.408283 -2.043968,0.167697 0.129982,-0.05556 0.539268,-0.262506 0.57038,-0.28952 0.168211,-0.144759 1.901232,-3.536934 1.901232,-3.536934 l 1.777909,0.581589"
       style="fill:#f7a491;fill-opacity:1;fill-rule:nonzero;stroke:none;stroke-width:0.00509718"
       id="path308"
       inkscape:connector-curvature="0" />
    <path
       d="m 37.120216,41.299496 1.672382,-0.519914 c 0,0 0.577003,0.293599 1.516925,0.102963 0,0 0.245163,0.394014 0.285964,0.909339 0.0072,0.08869 0.05095,0.352725 -0.03721,0.365976 -0.319612,0.04945 -1.204464,0.02854 -2.202489,0.05148 0,0 -1.345155,0.01582 -2.18568,-0.261995 -0.841052,-0.277287 0.950106,-0.647851 0.950106,-0.647851"
       style="fill:#07345a;fill-opacity:1;fill-rule:nonzero;stroke:none;stroke-width:0.00509718"
       id="path310"
       inkscape:connector-curvature="0" />
    <g
       id="g312"
       transform="matrix(0.00576583,0,0,-0.00576583,-40.088326,93.601173)">
      <path
         d="m 16173.4,9566.97 c 0,0 -343.2,78.41 -663.9,307.83 -371.2,265.5 -788.7,541.6 -953.7,519.1 -132.9,-18.1 -905.4,-1080.45 -905.4,-1080.45 l 374.2,-162.97 676,694.14 c 0,0 690.6,-711.94 917.5,-760.54 516.8,-110.68 681.9,270.36 555.3,482.89"
         style="fill:#b75742;fill-opacity:1;fill-rule:nonzero;stroke:none"
         id="path314"
         inkscape:connector-curvature="0" />
    </g>
    <g
       id="g316"
       transform="matrix(0.00511182,0,0,-0.00511182,-40.088326,93.601173)">
      <path
         d="m 15307.1,12751.6 587,-1243.6 c 2.7,-5.7 7.7,-9.8 13.8,-11.2 l 392.1,-109 -501.1,1232 -466.7,159.9 c -17.2,5.8 -32.8,-11.7 -25.1,-28.1"
         style="fill:#f7cc7f;fill-opacity:1;fill-rule:nonzero;stroke:none"
         id="path318"
         inkscape:connector-curvature="0" />
    </g>
    <g
       id="g320"
       transform="matrix(0.00564034,0,0,-0.00564034,-40.088326,93.601173)">
      <path
         d="m 15683.3,12621.6 c 0,0 98.2,134 208,0 0,0 65.3,48.4 123.5,-15.6 0,0 122.2,54.3 177.1,-131.7 0,0 63.8,20.6 82.3,-56 18.5,-76.6 -14.4,-133.4 -14.4,-133.4 0,0 40.2,-22.9 32.6,-96.4 -6.5,-62.6 -55.6,-78.2 -55.6,-78.2 0,0 -0.6,-104.1 -41.1,-140.5 -40.5,-36.5 -102.7,-29.4 -102.7,-29.4 0,0 -9.1,-57.5 -61.5,-59.1 -52.4,-1.6 -122.8,39.6 -177.9,10 -55.2,-29.5 -208.6,-25.2 -208.6,-25.2 0,0 -178.5,53.8 -149.8,232.9 0,0 -99,68.9 -33.5,174.9 0,0 -75.8,143.3 25.2,246.3 101,103.1 196.4,101.4 196.4,101.4"
         style="fill:#07345a;fill-opacity:1;fill-rule:nonzero;stroke:none"
         id="path322"
         inkscape:connector-curvature="0" />
    </g>
    <g
       id="g324"
       transform="matrix(0.00525626,0,0,-0.00525626,-40.088326,93.601173)">
      <path
         d="m 16248.1,8991.34 c 0,0 23.2,-628.97 37.5,-735.54 14.4,-105.99 -266.8,-425.52 -230.9,-314.39 8.3,25.6 29.5,110.16 29.6,118.02 0.1,42.18 -104.3,759.78 -104.3,759.78 l 268.1,172.13"
         style="fill:#f7a491;fill-opacity:1;fill-rule:nonzero;stroke:none"
         id="path326"
         inkscape:connector-curvature="0" />
    </g>
    <g
       id="g328"
       transform="matrix(0.00532401,0,0,-0.00532401,-40.088326,93.601173)">
      <path
         d="m 15745.8,7646.45 132.3,301.11 c 0,0 112.7,45.67 201.5,202.39 0,0 86,-13.79 164.1,-71.51 13.5,-9.96 56.3,-36.19 47.4,-50.36 -32.5,-51.42 -144.5,-174.25 -264.1,-318.63 0,0 -163.5,-192.53 -306.4,-277.55 -143,-85.01 25.2,214.55 25.2,214.55"
         style="fill:#07345a;fill-opacity:1;fill-rule:nonzero;stroke:none"
         id="path330"
         inkscape:connector-curvature="0" />
    </g>
    <g
       id="g332"
       transform="matrix(0.00577617,0,0,-0.00577617,-40.088326,93.601173)">
      <path
         d="m 14535.7,7585.63 c 26.8,27.18 -270.9,1491.47 -126.5,1632.81 144.3,141.33 1108.6,349.46 1108.6,349.46 l 126.5,445.9 c 0,0 403.2,-118.24 566.4,-361.55 89.3,-133.06 -1.9,-436.47 -18.1,-469.97 -137.7,-286.79 -477.9,-301.26 -725.5,-298.72 -227.7,2.34 -632.1,5.49 -632.1,5.49 l -1,-1294.42 c 0,0 -99.5,-24.09 -177.8,-21.09 -107.2,4.15 -120.5,12.09 -120.5,12.09"
         style="fill:#f47458;fill-opacity:1;fill-rule:nonzero;stroke:none"
         id="path334"
         inkscape:connector-curvature="0" />
    </g>
    <g
       id="g336"
       transform="matrix(0.00575431,0,0,-0.00575431,-40.088326,93.601173)">
      <path
         d="m 15488.2,11372.1 262.2,94.2 c 0,0 7.8,-0.4 10.2,-0.1 28.2,3.6 337.5,-1008.5 438.5,-1391.4 100.9,-382.87 -31.4,-310.26 -31.4,-310.26 0,0 -231.1,-144.1 -500.3,-154.25 -279.7,-10.55 -223.7,326.6 -223.7,326.6 0,0 -147.3,703.91 -130,943.51 17.2,239.6 174.5,491.7 174.5,491.7"
         style="fill:#ffffff;fill-opacity:1;fill-rule:nonzero;stroke:none"
         id="path338"
         inkscape:connector-curvature="0" />
    </g>
    <g
       id="g340"
       transform="matrix(0.00556021,0,0,-0.00556021,-40.088326,93.601173)">
      <path
         d="m 16033.2,11982.1 -1.1,-133.5 -0.1,-23.7 c 0,0 -18.5,-228.6 47,-263.9 65.5,-35.3 221,305.5 221,305.5 l -70.4,387.9 -196.4,-272.3"
         style="fill:#f7a491;fill-opacity:1;fill-rule:nonzero;stroke:none"
         id="path342"
         inkscape:connector-curvature="0" />
    </g>
    <g
       id="g344"
       transform="matrix(0.00554401,0,0,-0.00554401,-40.088326,93.601173)">
      <path
         d="m 16300,12163.8 c -32.8,-140.3 -140.9,-237.7 -220.8,-280.3 l 1,133.7 196.9,273 22.9,-126.4"
         style="fill:#f47458;fill-opacity:1;fill-rule:nonzero;stroke:none"
         id="path346"
         inkscape:connector-curvature="0" />
    </g>
    <g
       id="g348"
       transform="matrix(0.00556317,0,0,-0.00556317,-40.088326,93.601173)">
      <path
         d="m 16030.2,12641.5 c -127.1,26.5 -246.7,-70.9 -249.3,-198.8 -1.2,-55.6 0.1,-125.1 8.3,-200.3 19.6,-180.9 135.2,-344.6 217.2,-334.2 82,10.3 293.6,155.9 269.3,413.1 -15,158.8 -112.1,292.4 -245.5,320.2"
         style="fill:#f7a491;fill-opacity:1;fill-rule:nonzero;stroke:none"
         id="path350"
         inkscape:connector-curvature="0" />
    </g>
    <g
       id="g352"
       transform="matrix(0.00557708,0,0,-0.00557708,-40.088326,93.601173)">
      <path
         d="m 16177.4,12262.7 c 5.1,-39.7 35.5,-68.6 67.9,-64.5 32.5,4.2 54.7,39.7 49.7,79.4 -5.1,39.7 -35.4,68.5 -67.9,64.4 -32.5,-4.1 -54.7,-39.6 -49.7,-79.3"
         style="fill:#f7a491;fill-opacity:1;fill-rule:nonzero;stroke:none"
         id="path354"
         inkscape:connector-curvature="0" />
    </g>
    <g
       id="g356"
       transform="matrix(0.00544634,0,0,-0.00544634,-40.088326,93.601173)">
      <path
         d="m 15999.9,12958.5 c -77.8,-79.5 -94.8,-187.4 -38.2,-241 56.7,-53.7 165.6,-32.8 243.4,46.7 77.8,79.4 94.9,187.3 38.2,241 -56.6,53.6 -165.7,32.7 -243.4,-46.7"
         style="fill:#07345a;fill-opacity:1;fill-rule:nonzero;stroke:none"
         id="path358"
         inkscape:connector-curvature="0" />
    </g>
    <g
       id="g360"
       transform="matrix(0.00547885,0,0,-0.00547885,-40.088326,93.601173)">
      <path
         d="m 16136.6,12854.2 c 3.8,-29.6 42.6,-49 86.6,-43.4 44.1,5.6 76.8,34.1 73.1,63.7 -3.8,29.5 -42.5,49 -86.6,43.4 -44.1,-5.6 -76.8,-34.1 -73.1,-63.7"
         style="fill:#07345a;fill-opacity:1;fill-rule:nonzero;stroke:none"
         id="path362"
         inkscape:connector-curvature="0" />
    </g>
    <g
       id="g364"
       transform="matrix(0.00540128,0,0,-0.00540128,-40.088326,93.601173)">
      <path
         d="m 16156.9,12777.4 c 4.9,-38.6 39.8,-66 78,-61.1 38.1,4.8 65.1,40 60.2,78.6 -4.9,38.6 -39.8,65.9 -78,61.1 -38.1,-4.8 -65.1,-40 -60.2,-78.6"
         style="fill:#07345a;fill-opacity:1;fill-rule:nonzero;stroke:none"
         id="path366"
         inkscape:connector-curvature="0" />
    </g>
    <g
       id="g368"
       transform="matrix(0.00582955,0,0,-0.00582955,-40.088326,93.601173)">
      <path
         d="m 15546.9,11318.3 c 0,0 253.3,41.1 338.4,4.9 54.1,-23.1 123,-482.3 123,-482.3 0,0 2.8,-464.5 34.5,-595.4 107.3,-444.03 257.2,-832.84 240.4,-854.77 -110.2,-90.55 -570.9,-174.49 -606,-131.34 -386.7,476.42 -130.3,2058.91 -130.3,2058.91"
         style="fill:#466eb6;fill-opacity:1;fill-rule:nonzero;stroke:none"
         id="path370"
         inkscape:connector-curvature="0" />
    </g>
    <g
       id="g372"
       transform="matrix(0.00571145,0,0,-0.00571145,-40.088326,93.601173)">
      <path
         d="m 16300,11071.8 c 0,0 -258.9,-800.2 -372.2,-884.1 -113.2,-83.9 -622.6,701.3 -622.6,701.3 0,0 -225.4,127.9 -241.5,129.3 -63.9,5.3 133.3,38.2 133.3,38.2 l 24.5,204.2 c 0,0 9.6,-1.5 68.5,-67.8 79.6,-89.7 148.8,-228.7 181.3,-252.2 l 341.2,-258.9 173.7,554.5 313.8,-164.5"
         style="fill:#f7a491;fill-opacity:1;fill-rule:nonzero;stroke:none"
         id="path374"
         inkscape:connector-curvature="0" />
    </g>
    <g
       id="g376"
       transform="matrix(0.0051532,0,0,-0.0051532,-40.088326,93.601173)">
      <path
         d="m 15672.2,12518.5 118.7,11.6 509.1,-1266.9 -130.9,33.2 -496.9,1222.1"
         style="fill:#fae0b2;fill-opacity:1;fill-rule:nonzero;stroke:none"
         id="path378"
         inkscape:connector-curvature="0" />
    </g>
    <g
       id="g380"
       transform="matrix(0.00541107,0,0,-0.00541107,-40.088326,93.601173)">
      <path
         d="m 16003.5,12215.9 291.7,-1420.4 c 4.8,-23.5 -12.7,-45.6 -36.6,-46.3 l -735.4,-22.7 -484.8,1206.4 914.8,311.8 c 22,7.5 45.6,-6 50.3,-28.8"
         style="fill:#f7cc7f;fill-opacity:1;fill-rule:nonzero;stroke:none"
         id="path382"
         inkscape:connector-curvature="0" />
    </g>
    <g
       id="g384"
       transform="matrix(0.00574238,0,0,-0.00574238,-40.088326,93.601173)">
      <path
         d="m 15359.1,10930.2 -87.9,-192.4 c 0,0 431.9,-710.6 565.2,-671.2 133.3,39.4 384.8,809.1 424.2,1021.2 39.4,212.2 -42.4,387.9 -151.5,415.2 -109.1,27.3 -194,-157.6 -227.3,-236.4 -33.3,-78.8 -154.5,-642.4 -154.5,-642.4 l -368.2,306"
         style="fill:#86b1f2;fill-opacity:1;fill-rule:nonzero;stroke:none"
         id="path386"
         inkscape:connector-curvature="0" />
    </g>
    <path
       d="m 39.293669,30.896148 c 0,0 -0.09277,-0.163112 -0.122862,-0.263017 -0.02966,-0.09939 0.580562,-0.446001 0.822168,-0.287991 0.241637,0.158013 -0.403686,0.398092 -0.699306,0.551008"
       style="fill:#f7a491;fill-opacity:1;fill-rule:nonzero;stroke:none;stroke-width:0.00509718"
       id="path388"
       inkscape:connector-curvature="0" />
    <path
       d="m 39.319145,31.295255 c 0,0 -0.153413,-0.160561 -0.183008,-0.260465 -0.02999,-0.0994 0.782422,-0.508188 1.024027,-0.350178 0.241604,0.158014 -0.545398,0.458238 -0.841019,0.610643"
       style="fill:#f7a491;fill-opacity:1;fill-rule:nonzero;stroke:none;stroke-width:0.00509718"
       id="path390"
       inkscape:connector-curvature="0" />
    <path
       d="m 39.597463,31.574071 c 0,0 -0.153447,-0.161069 -0.183008,-0.260467 -0.02999,-0.0999 0.580563,-0.446001 0.822168,-0.288497 0.241605,0.15801 -0.343539,0.396049 -0.63916,0.548964"
       style="fill:#f7a491;fill-opacity:1;fill-rule:nonzero;stroke:none;stroke-width:0.00509718"
       id="path392"
       inkscape:connector-curvature="0" />
    <g
       id="g394"
       transform="matrix(0.00536377,0,0,-0.00536377,-40.088326,93.601173)">
      <path
         d="m 16232.4,11906.2 h -23.6 c -11.2,0 -22.4,1.2 -33.4,3.6 -43.6,9.5 -163,33.2 -172.3,9.4 -11.3,-29.2 171.9,-63.3 171.9,-63.3 0,0 -201,26 -201,-8.1 0,-34.1 204.4,-51.9 204.4,-51.9 0,0 -178.5,6.5 -181.7,-13 -3.3,-19.4 218.9,-74.6 218.9,-74.6 0,0 -180,38.9 -197.8,16.2 -17.9,-22.7 282.2,-132.2 282.2,-132.2 l -67.6,313.9"
         style="fill:#f7a491;fill-opacity:1;fill-rule:nonzero;stroke:none"
         id="path396"
         inkscape:connector-curvature="0" />
    </g>
    <path
       d="m 39.597463,31.574071 c 0,0 0.527536,-0.298184 0.667206,-0.204907 0.139143,0.09277 -0.452626,0.539285 -0.452626,0.539285 l 0.07085,0.163109 c 0,0 -0.378209,-0.292579 -0.285437,-0.497487"
       style="fill:#f7a491;fill-opacity:1;fill-rule:nonzero;stroke:none;stroke-width:0.00509718"
       id="path398"
       inkscape:connector-curvature="0" />
  </g>
</svg>
