<?xml version="1.0" encoding="UTF-8" standalone="no"?>
<!-- Created with Inkscape (http://www.inkscape.org/) -->

<svg
   xmlns:dc="http://purl.org/dc/elements/1.1/"
   xmlns:cc="http://creativecommons.org/ns#"
   xmlns:rdf="http://www.w3.org/1999/02/22-rdf-syntax-ns#"
   xmlns:svg="http://www.w3.org/2000/svg"
   xmlns="http://www.w3.org/2000/svg"
   xmlns:sodipodi="http://sodipodi.sourceforge.net/DTD/sodipodi-0.dtd"
   xmlns:inkscape="http://www.inkscape.org/namespaces/inkscape"
   width="45px"
   height="45px"
   viewBox="0 0 45 45"
   version="1.1"
   id="SVGRoot"
   inkscape:version="0.92.5 (2060ec1f9f, 2020-04-08)"
   sodipodi:docname="mail.svg">
  <defs
     id="defs371" />
  <sodipodi:namedview
     id="base"
     pagecolor="#ffffff"
     bordercolor="#666666"
     borderopacity="1.0"
     inkscape:pageopacity="0.0"
     inkscape:pageshadow="2"
     inkscape:zoom="5.6888889"
     inkscape:cx="22.5"
     inkscape:cy="22.5"
     inkscape:document-units="px"
     inkscape:current-layer="layer1"
     showgrid="false"
     inkscape:window-width="1848"
     inkscape:window-height="1016"
     inkscape:window-x="72"
     inkscape:window-y="27"
     inkscape:window-maximized="1"
     inkscape:grid-bbox="true" />
  <metadata
     id="metadata374">
    <rdf:RDF>
      <cc:Work
         rdf:about="">
        <dc:format>image/svg+xml</dc:format>
        <dc:type
           rdf:resource="http://purl.org/dc/dcmitype/StillImage" />
        <dc:title></dc:title>
      </cc:Work>
    </rdf:RDF>
  </metadata>
  <g
     inkscape:label="Calque 1"
     inkscape:groupmode="layer"
     id="layer1">
    <path
       d="m 22.767562,41.703047 c -10.436,0 -18.9426655,-8.582799 -18.9426655,-19.111999 0,-10.436 8.5066655,-18.9426657 18.9426655,-18.9426657 10.529333,0 19.112,8.5066657 19.112,18.9426657 0,10.5292 -8.582667,19.111999 -19.112,19.111999 z m 0,-40.5613317 c -11.854666,0 -21.4506655,9.5933327 -21.4506655,21.4493327 0,11.769333 9.5079995,21.618799 21.4506655,21.618799 11.832,0 21.618666,-9.749466 21.618666,-21.618799 0,-11.954667 -9.862666,-21.4493327 -21.618666,-21.4493327 v 0"
       style="fill:#434952;fill-opacity:1;fill-rule:nonzero;stroke:none;stroke-width:0.13333333"
       id="path28"
       inkscape:connector-curvature="0" />
    <path
       d="m 22.767562,26.393714 c -2.086666,0 -3.785333,-1.714666 -3.785333,-3.802666 0,-2.086667 1.698667,-3.801333 3.785333,-3.801333 2.144,0 3.953333,1.749333 3.953333,3.801333 0,2.053333 -1.809333,3.802666 -3.953333,3.802666 z m 0,-17.6826657 c -7.653333,0 -13.8799985,6.2279997 -13.8799985,13.8799997 0,7.682666 6.2133325,14.049599 13.8799985,14.049599 3.102667,0 6.24,-1.044266 8.609333,-2.861466 0.552,-0.422933 0.656,-1.216133 0.232,-1.768133 -0.422666,-0.553334 -1.216,-0.657334 -1.768,-0.233334 -1.937333,1.485334 -4.516,2.356134 -7.073333,2.356134 -6.261333,0 -11.356,-5.188134 -11.356,-11.5428 0,-6.261333 5.094667,-11.372 11.356,-11.372 6.354667,0 11.525333,5.110667 11.525333,11.372 v 1.262666 c 0,1.392 -1.132,2.522667 -2.524,2.522667 -1.392,0 -2.524,-1.130667 -2.524,-2.522667 0,-0.625333 0,-5.650666 0,-6.309333 0,-0.697333 -0.564,-1.261333 -1.261333,-1.261333 -0.697333,0 -1.262667,0.564 -1.262667,1.261333 v 0.08 c -1.14,-0.868 -2.517333,-1.341333 -3.953333,-1.341333 -3.478666,0 -6.309333,2.829333 -6.309333,6.308 0,3.48 2.830667,6.309333 6.309333,6.309333 1.886667,0 3.621333,-0.809333 4.857333,-2.170667 0.912,1.310667 2.428,2.170667 4.144,2.170667 2.782667,0 5.046667,-2.264 5.046667,-5.046667 v -1.262666 c 0,-7.674667 -6.374667,-13.8799997 -14.048,-13.8799997 v 0"
       style="fill:#434952;fill-opacity:1;fill-rule:nonzero;stroke:none;stroke-width:0.13333333"
       id="path30"
       inkscape:connector-curvature="0" />
  </g>
</svg>
