<?xml version="1.0" encoding="UTF-8" standalone="no"?>
<!-- Created with Inkscape (http://www.inkscape.org/) -->

<svg
   xmlns:dc="http://purl.org/dc/elements/1.1/"
   xmlns:cc="http://creativecommons.org/ns#"
   xmlns:rdf="http://www.w3.org/1999/02/22-rdf-syntax-ns#"
   xmlns:svg="http://www.w3.org/2000/svg"
   xmlns="http://www.w3.org/2000/svg"
   xmlns:sodipodi="http://sodipodi.sourceforge.net/DTD/sodipodi-0.dtd"
   xmlns:inkscape="http://www.inkscape.org/namespaces/inkscape"
   width="45px"
   height="45px"
   viewBox="0 0 45 45"
   version="1.1"
   id="SVGRoot"
   inkscape:version="0.92.5 (2060ec1f9f, 2020-04-08)"
   sodipodi:docname="phone.svg">
  <defs
     id="defs314" />
  <sodipodi:namedview
     id="base"
     pagecolor="#ffffff"
     bordercolor="#666666"
     borderopacity="1.0"
     inkscape:pageopacity="0.0"
     inkscape:pageshadow="2"
     inkscape:zoom="5.6888889"
     inkscape:cx="22.5"
     inkscape:cy="22.5"
     inkscape:document-units="px"
     inkscape:current-layer="layer1"
     showgrid="false"
     inkscape:window-width="1848"
     inkscape:window-height="1016"
     inkscape:window-x="72"
     inkscape:window-y="27"
     inkscape:window-maximized="1"
     inkscape:grid-bbox="true" />
  <metadata
     id="metadata317">
    <rdf:RDF>
      <cc:Work
         rdf:about="">
        <dc:format>image/svg+xml</dc:format>
        <dc:type
           rdf:resource="http://purl.org/dc/dcmitype/StillImage" />
        <dc:title></dc:title>
      </cc:Work>
    </rdf:RDF>
  </metadata>
  <g
     inkscape:label="Calque 1"
     inkscape:groupmode="layer"
     id="layer1">
    <path
       d="m 22.498667,0.4931168 c -11.988,0 -21.74133325,9.7533332 -21.74133325,21.7413332 0,4.693333 1.90533395,8.905333 2.72266695,10.498666 0.382667,0.742667 1.293333,1.034667 2.034666,0.654667 0.742667,-0.382667 1.034667,-1.293333 0.653334,-2.034667 -0.718667,-1.398666 -2.388,-5.085333 -2.388,-9.118666 -0.0013,-10.322667 8.3973333,-18.7199995 18.7186663,-18.7199995 10.324,0 18.723999,8.3973325 18.723999,18.7199995 0,10.322666 -8.399999,18.721333 -18.723999,18.721333 -4.036,0 -7.244,-1.398667 -8.436,-1.998667 -0.353333,-0.178667 -0.764,-0.210667 -1.14,-0.09067 L 3.4066677,41.90778 c -0.794667,0.254666 -1.233334,1.104 -0.98,1.898666 0.206666,0.642667 0.8,1.052 1.438666,1.052 0.153334,0 0.308,-0.024 0.461333,-0.07333 l 8.9413333,-2.856 c 1.870667,0.868 5.162667,2.048 9.230667,2.048 11.990666,0 21.743999,-9.753333 21.743999,-21.742666 0,-11.988 -9.753333,-21.7413332 -21.743999,-21.7413332 v 0"
       style="fill:#434952;fill-opacity:1;fill-rule:nonzero;stroke:none;stroke-width:0.13333333"
       id="path24"
       inkscape:connector-curvature="0" />
    <path
       d="m 18.213334,18.52645 c -0.661334,0.509333 -0.786667,1.457333 -0.278667,2.118666 0.509333,0.661334 1.457333,0.786667 2.118667,0.278667 0.462666,-0.356 1.693333,-1.3 1.513333,-2.990666 -0.112,-1.004 -1.090667,-2.381334 -1.894667,-3.361334 -1.173333,-1.433333 -2.166666,-2.281333 -2.949333,-2.52 -0.730667,-0.226666 -1.481333,-0.192 -2.228,0.106667 -1.538667,0.614667 -2.624,1.632 -3.14,2.945333 -0.501333,1.277334 -0.409333,2.706667 0.265333,4.136 1.576,3.328 3.684,6.202667 6.262667,8.544 0.01067,0.0093 0.02,0.01733 0.03067,0.02667 2.616,2.312 5.710666,4.094666 9.199999,5.296 0.661334,0.226666 1.312,0.34 1.934667,0.34 0.785333,0 1.528,-0.177334 2.205333,-0.534667 1.246667,-0.657333 2.138667,-1.848 2.58,-3.446667 0.213334,-0.774666 0.165334,-1.522666 -0.138666,-2.221333 -0.326667,-0.753333 -1.278667,-1.648 -2.832,-2.657333 -1.061334,-0.689334 -2.538667,-1.510667 -3.553334,-1.510667 -0.0013,0 -0.0027,0 -0.0027,0 -1.693334,0.008 -2.497334,1.333333 -2.8,1.834667 -0.432,0.713333 -0.204,1.642666 0.510666,2.074666 0.712,0.432 1.641334,0.204 2.073334,-0.510666 0.12,-0.197334 0.194666,-0.301334 0.244,-0.356 0.852,0.246666 3.134666,1.74 3.602666,2.369333 0.008,0.03333 0.0093,0.084 -0.016,0.176 -0.149333,0.537333 -0.457333,1.249333 -1.078666,1.576 -0.58,0.305333 -1.270667,0.173333 -1.746667,0.01067 -3.105333,-1.069334 -5.852,-2.648 -8.168,-4.689334 0,-0.0013 0,-0.0013 0,-0.0027 -2.292,-2.074667 -4.169333,-4.636 -5.578666,-7.610667 -0.214667,-0.457333 -0.422667,-1.129333 -0.181334,-1.738666 0.254667,-0.653334 0.928,-1.037334 1.446667,-1.244 0.088,-0.036 0.138667,-0.04133 0.174667,-0.036 0.676,0.396 2.410666,2.497333 2.752,3.318666 -0.04933,0.05333 -0.145334,0.138667 -0.328,0.278667 v 0"
       style="fill:#434952;fill-opacity:1;fill-rule:nonzero;stroke:none;stroke-width:0.13333333"
       id="path26"
       inkscape:connector-curvature="0" />
  </g>
</svg>
