<?xml version="1.0" encoding="UTF-8" standalone="no"?>
<!-- Created with Inkscape (http://www.inkscape.org/) -->

<svg
   xmlns:dc="http://purl.org/dc/elements/1.1/"
   xmlns:cc="http://creativecommons.org/ns#"
   xmlns:rdf="http://www.w3.org/1999/02/22-rdf-syntax-ns#"
   xmlns:svg="http://www.w3.org/2000/svg"
   xmlns="http://www.w3.org/2000/svg"
   xmlns:sodipodi="http://sodipodi.sourceforge.net/DTD/sodipodi-0.dtd"
   xmlns:inkscape="http://www.inkscape.org/namespaces/inkscape"
   width="100px"
   height="100px"
   viewBox="0 0 100 100"
   version="1.1"
   id="SVGRoot"
   inkscape:version="0.92.5 (2060ec1f9f, 2020-04-08)"
   sodipodi:docname="rando.svg">
  <defs
     id="defs3473" />
  <sodipodi:namedview
     id="base"
     pagecolor="#ffffff"
     bordercolor="#666666"
     borderopacity="1.0"
     inkscape:pageopacity="0.0"
     inkscape:pageshadow="2"
     inkscape:zoom="5.12"
     inkscape:cx="46.462025"
     inkscape:cy="23.938999"
     inkscape:document-units="px"
     inkscape:current-layer="layer1"
     showgrid="false"
     inkscape:window-width="1848"
     inkscape:window-height="1016"
     inkscape:window-x="72"
     inkscape:window-y="27"
     inkscape:window-maximized="1"
     inkscape:grid-bbox="true" />
  <metadata
     id="metadata3476">
    <rdf:RDF>
      <cc:Work
         rdf:about="">
        <dc:format>image/svg+xml</dc:format>
        <dc:type
           rdf:resource="http://purl.org/dc/dcmitype/StillImage" />
        <dc:title></dc:title>
      </cc:Work>
    </rdf:RDF>
  </metadata>
  <g
     inkscape:label="Calque 1"
     inkscape:groupmode="layer"
     id="layer1">
    <g
       id="g720"
       transform="matrix(0.01314463,0,0,-0.01314463,-131.48643,242.8241)">
      <path
         d="m 15314.9,16262.4 -32.5,-685.1 c 0,0 92.3,-316.2 100,-419.9 10.5,-140.5 2.4,-191 2.4,-191 l 95.7,12.2 c 0,0 41.6,511.9 1.8,584.9 -39.9,73 127.5,736.5 127.5,736.5 l -294.9,-37.6"
         style="fill:#365352;fill-opacity:1;fill-rule:nonzero;stroke:none"
         id="path722"
         inkscape:connector-curvature="0" />
    </g>
    <g
       id="g724"
       transform="matrix(0.01290119,0,0,-0.01290119,-131.48643,242.8241)">
      <path
         d="m 16300,15393.9 c -4.8,4.8 -26.5,73.3 -26.5,73.3 l -60.8,-15.8 6.8,-98.5 80.5,41"
         style="fill:#1b2a29;fill-opacity:1;fill-rule:nonzero;stroke:none"
         id="path726"
         inkscape:connector-curvature="0" />
    </g>
    <g
       id="g728"
       transform="matrix(0.01413305,0,0,-0.01413305,-131.48643,242.8241)">
      <path
         d="m 14247.4,16292.6 -10.1,7.4 -7.4,-23.3 17.5,15.9"
         style="fill:#14201f;fill-opacity:1;fill-rule:nonzero;stroke:none"
         id="path730"
         inkscape:connector-curvature="0" />
    </g>
    <g
       id="g732"
       transform="matrix(0.01401528,0,0,-0.01401528,-131.48643,242.8241)">
      <path
         d="m 13966.2,16282.2 0.9,17.8 19.7,-6.8 -20.6,-11"
         style="fill:#14201f;fill-opacity:1;fill-rule:nonzero;stroke:none"
         id="path734"
         inkscape:connector-curvature="0" />
    </g>
    <g
       id="g736"
       transform="matrix(0.01319282,0,0,-0.01319282,-131.48643,242.8241)">
      <path
         d="m 15464.6,16198.6 c 0,0 196.1,-407.7 238.1,-550.9 41.8,-143.3 135.7,-613.6 135.7,-613.6 l 101.3,59.2 c 0,0 -71.8,931.2 -230.5,1206.7 l -244.6,-101.4"
         style="fill:#1b2a29;fill-opacity:1;fill-rule:nonzero;stroke:none"
         id="path738"
         inkscape:connector-curvature="0" />
    </g>
    <g
       id="g740"
       transform="matrix(0.01254309,0,0,-0.01254309,-131.48643,242.8241)">
      <path
         d="m 14438.7,16300 c 0,0 67,-66.6 106.3,-49.9 27.3,11.6 115.8,-26.7 115.8,-26.7 l -63.5,-124.4 -90.6,31 -82.5,62.4 14.5,107.6"
         style="fill:#e55555;fill-opacity:1;fill-rule:nonzero;stroke:none"
         id="path742"
         inkscape:connector-curvature="0" />
    </g>
    <g
       id="g744"
       transform="matrix(0.01260104,0,0,-0.01260104,-131.48643,242.8241)">
      <path
         d="m 13998.8,15200.5 -18,10.6 640.4,1088.9 18.1,-10.6 -640.5,-1088.9"
         style="fill:#600202;fill-opacity:1;fill-rule:nonzero;stroke:none"
         id="path746"
         inkscape:connector-curvature="0" />
    </g>
    <g
       id="g748"
       transform="matrix(0.01259867,0,0,-0.01259867,-131.48643,242.8241)">
      <path
         d="m 13996.3,15206.3 -7.8,4.6 640.6,1089.1 7.7,-4.6 -640.5,-1089.1"
         style="fill:#9e0d0d;fill-opacity:1;fill-rule:nonzero;stroke:none"
         id="path750"
         inkscape:connector-curvature="0" />
    </g>
    <path
       d="M 44.432027,52.213841 44.1041,52.02108 l 0.633325,-1.075154 0.327933,0.192751 -0.633331,1.075164"
       style="fill:#2f2c35;fill-opacity:1;fill-rule:nonzero;stroke:none;stroke-width:0.01251642"
       id="path752"
       inkscape:connector-curvature="0" />
    <path
       d="m 44.266808,52.380311 -0.226546,-0.133929 0.115151,-0.195258 0.226546,0.132674 -0.115151,0.196513"
       style="fill:#070707;fill-opacity:1;fill-rule:nonzero;stroke:none;stroke-width:0.01251642"
       id="path754"
       inkscape:connector-curvature="0" />
    <path
       d="m 43.130316,54.23649 -0.161462,-0.09513 1.017587,-1.947557 0.351712,0.207774 -1.207837,1.834907"
       style="fill:#2f2c35;fill-opacity:1;fill-rule:nonzero;stroke:none;stroke-width:0.01251642"
       id="path756"
       inkscape:connector-curvature="0" />
    <path
       d="m 42.783609,54.647035 0.201516,-0.495647 0.12892,0.07506 z"
       style="fill:#595563;fill-opacity:1;fill-rule:nonzero;stroke:none;stroke-width:0.01251642"
       id="path758"
       inkscape:connector-curvature="0" />
    <g
       id="g760"
       transform="matrix(0.01282284,0,0,-0.01282284,-131.48643,242.8241)">
      <path
         d="m 14527.8,16234.4 c -9.9,-12.1 -18.2,-26.8 -18.2,-26.8 -10.4,-34.9 -39.4,-65.8 -39.4,-65.8 -21.9,-26.4 -30.3,-55.7 -30.3,-55.7 -8.9,-31.5 -27.1,-56.8 -27.1,-56.8 l -28.7,-25 -17.8,10.5 6.2,35.6 126.9,249.6 60.7,-35.7 -9,-15.3 c -6.1,3.6 -15.2,-4.5 -23.3,-14.6"
         style="fill:#070707;fill-opacity:1;fill-rule:nonzero;stroke:none"
         id="path762"
         inkscape:connector-curvature="0" />
    </g>
    <g
       id="g764"
       transform="matrix(0.01277127,0,0,-0.01277127,-131.48643,242.8241)">
      <path
         d="m 14471,16094.1 c -28.5,23.6 22.1,116.7 59.2,165.2 24.3,31.8 44.9,39.3 56.3,40.7 -9.9,-12.2 -18.3,-27 -18.3,-27 -10.5,-35 -39.6,-66 -39.6,-66 -21.9,-26.6 -30.3,-55.9 -30.3,-55.9 -9.1,-31.7 -27.3,-57 -27.3,-57"
         style="fill:#db0707;fill-opacity:1;fill-rule:nonzero;stroke:none"
         id="path766"
         inkscape:connector-curvature="0" />
    </g>
    <g
       id="g768"
       transform="matrix(0.01277027,0,0,-0.01277027,-131.48643,242.8241)">
      <path
         d="m 14553.7,16272.1 c 9.9,12.9 19.2,21.8 27.5,27.9 -11.9,-3.3 -29.5,-12.9 -49.8,-39.4 -37.2,-48.5 -87.7,-141.6 -59.2,-165.2 0,0 7.1,10 14.8,25.3 -7,35.2 34.8,109.6 66.7,151.4"
         style="fill:#910707;fill-opacity:1;fill-rule:nonzero;stroke:none"
         id="path770"
         inkscape:connector-curvature="0" />
    </g>
    <path
       d="m 44.611014,51.600533 c -0.137684,0.232807 -0.279123,0.404278 -0.317918,0.381759 -0.0388,-0.02256 0.04254,-0.23031 0.180234,-0.464366 0.136427,-0.232807 0.279116,-0.404279 0.317917,-0.381752 0.0388,0.02251 -0.04253,0.230301 -0.180233,0.464359"
       style="fill:#595563;fill-opacity:1;fill-rule:nonzero;stroke:none;stroke-width:0.01251642"
       id="path772"
       inkscape:connector-curvature="0" />
    <g
       id="g774"
       transform="matrix(0.01259304,0,0,-0.01259304,-131.48643,242.8241)">
      <path
         d="m 13874.7,15326.5 -15.8,13.6 822.4,959.9 15.9,-13.6 -822.5,-959.9"
         style="fill:#600202;fill-opacity:1;fill-rule:nonzero;stroke:none"
         id="path776"
         inkscape:connector-curvature="0" />
    </g>
    <g
       id="g778"
       transform="matrix(0.01259003,0,0,-0.01259003,-131.48643,242.8241)">
      <path
         d="m 13873.5,15334 -6.9,5.8 822.7,960.2 6.9,-5.9 -822.7,-960.1"
         style="fill:#9e0d0d;fill-opacity:1;fill-rule:nonzero;stroke:none"
         id="path780"
         inkscape:connector-curvature="0" />
    </g>
    <path
       d="m 42.603377,50.649286 -0.290384,-0.247823 0.812319,-0.947495 0.289126,0.247823 -0.811061,0.947495"
       style="fill:#2f2c35;fill-opacity:1;fill-rule:nonzero;stroke:none;stroke-width:0.01251642"
       id="path782"
       inkscape:connector-curvature="0" />
    <path
       d="m 42.41062,50.783211 -0.200264,-0.170224 0.147694,-0.17273 0.200264,0.17148 -0.147694,0.171474"
       style="fill:#070707;fill-opacity:1;fill-rule:nonzero;stroke:none;stroke-width:0.01251642"
       id="path784"
       inkscape:connector-curvature="0" />
    <path
       d="m 40.964975,52.411604 -0.141437,-0.121414 1.343011,-1.738531 0.31041,0.265346 -1.511984,1.594599"
       style="fill:#2f2c35;fill-opacity:1;fill-rule:nonzero;stroke:none;stroke-width:0.01251642"
       id="path786"
       inkscape:connector-curvature="0" />
    <path
       d="m 40.551928,52.754546 0.285378,-0.451839 0.1139,0.09638 z"
       style="fill:#595563;fill-opacity:1;fill-rule:nonzero;stroke:none;stroke-width:0.01251642"
       id="path788"
       inkscape:connector-curvature="0" />
    <g
       id="g790"
       transform="matrix(0.01279329,0,0,-0.01279329,-131.48643,242.8241)">
      <path
         d="m 14647,16230.3 c -11.8,-10.2 -22.6,-23.3 -22.6,-23.3 -16.5,-32.6 -50.5,-57.9 -50.5,-57.9 -26.3,-22.3 -39.8,-49.7 -39.8,-49.7 -14.3,-29.5 -36.7,-51.2 -36.7,-51.2 l -32.7,-19.6 -15.6,13.4 12.3,34.1 169.1,223.9 53.7,-46 -11.5,-13.4 c -5.5,4.6 -16,-1.8 -25.7,-10.3"
         style="fill:#070707;fill-opacity:1;fill-rule:nonzero;stroke:none"
         id="path792"
         inkscape:connector-curvature="0" />
    </g>
    <g
       id="g794"
       transform="matrix(0.0127391,0,0,-0.0127391,-131.48643,242.8241)">
      <path
         d="m 14559.1,16116.5 c -23.9,28.3 42.4,111.3 87.6,152.7 29.7,27.1 51.3,30.8 62.7,30.2 -11.9,-10.3 -22.7,-23.5 -22.7,-23.5 -16.6,-32.7 -50.8,-58.1 -50.8,-58.1 -26.4,-22.4 -39.9,-49.9 -39.9,-49.9 -14.5,-29.6 -36.9,-51.4 -36.9,-51.4"
         style="fill:#db0707;fill-opacity:1;fill-rule:nonzero;stroke:none"
         id="path796"
         inkscape:connector-curvature="0" />
    </g>
    <g
       id="g798"
       transform="matrix(0.01273847,0,0,-0.01273847,-131.48643,242.8241)">
      <path
         d="m 14671.5,16277.3 c 12.1,11 22.8,18.1 32,22.7 -12.3,-1.1 -31.4,-7.5 -56.1,-30.1 -45.2,-41.4 -111.5,-124.3 -87.6,-152.6 0,0 8.9,8.6 19.1,22.3 -0.6,36 53.8,102.1 92.6,137.7"
         style="fill:#910707;fill-opacity:1;fill-rule:nonzero;stroke:none"
         id="path800"
         inkscape:connector-curvature="0" />
    </g>
    <path
       d="m 42.886247,50.076032 c -0.176484,0.20652 -0.346707,0.350461 -0.380503,0.321671 -0.03381,-0.02882 0.08261,-0.21904 0.259096,-0.425554 0.176479,-0.206526 0.346701,-0.349211 0.380498,-0.320426 0.03381,0.02882 -0.08261,0.21904 -0.259091,0.424309"
       style="fill:#595563;fill-opacity:1;fill-rule:nonzero;stroke:none;stroke-width:0.01251642"
       id="path802"
       inkscape:connector-curvature="0" />
    <path
       d="m 52.404993,39.333177 c 0,0 -0.459349,-0.488139 -0.990049,-0.505663 -0.529442,-0.01624 0.639588,0.607048 0.436827,0.624567 -0.204018,0.01876 -0.993809,-0.145187 -0.91996,0.05257 0.07384,0.197761 0.94374,0.327932 0.874897,0.408036 -0.06759,0.08135 -0.914951,-0.147695 -0.836098,0.07385 0.07886,0.220291 0.679645,0.316666 0.66087,0.416795 -0.02002,0.100138 -0.669634,-0.160208 -0.514427,0.04505 0.155202,0.205271 0.420555,0.486889 0.582013,0.473125 0.160211,-0.01377 0.374246,-0.147694 0.455602,-0.3392 0.0826,-0.190248 0.231551,-0.175226 0.249073,-0.62832 0.01624,-0.453099 0.001,-0.62082 0.001,-0.62082"
       style="fill:#fc7575;fill-opacity:1;fill-rule:nonzero;stroke:none;stroke-width:0.01251642"
       id="path804"
       inkscape:connector-curvature="0" />
    <g
       id="g806"
       transform="matrix(0.01327693,0,0,-0.01327693,-131.48643,242.8241)">
      <path
         d="m 14517.2,16214 c 0,0 -154.3,-8.4 -179.4,-8.4 -25,0 -71.9,79.8 -101.6,87.1 -29.8,7.3 9.3,-34.9 18.7,-61.5 9.4,-26.6 20.4,-45.4 4.7,-61.1 -15.6,-15.6 -157.1,-33.3 -146.1,-58.3 10.9,-25 152.4,42.6 163.3,31.7 10.9,-11 -169.6,-45.8 -152.4,-63 17.2,-17.2 164.9,45.4 164.9,25 0,-20.3 -134.4,-29.4 -117.9,-45.8 16.4,-16.4 164.9,16.6 189.9,27.5 25,11 180.9,34 180.9,34 l -25,92.8"
         style="fill:#e55555;fill-opacity:1;fill-rule:nonzero;stroke:none"
         id="path808"
         inkscape:connector-curvature="0" />
    </g>
    <g
       id="g810"
       transform="matrix(0.01324126,0,0,-0.01324126,-131.48643,242.8241)">
      <path
         d="m 14128.6,16287.5 c 0,0 175.7,12.5 210.2,12.5 34.5,0 75,-66 91,-113 16,-47 -67.2,77.3 -78.3,77.3 -11.1,0 70.5,-111.8 59.5,-122.8 -11,-10.9 -89.9,126.3 -108.4,107.8 -18.5,-18.5 69.2,-83 69.2,-108.4 0,-25.3 -83.2,69.7 -108.3,69.7 -25.1,0 -152.2,-6.3 -152.2,-6.3 l 17.3,83.2"
         style="fill:#fc7575;fill-opacity:1;fill-rule:nonzero;stroke:none"
         id="path812"
         inkscape:connector-curvature="0" />
    </g>
    <path
       d="m 42.714772,40.846412 -2.285502,6.440957 -9.846678,3.323116 -0.539458,-2.160341 c 0,0 5.940298,-3.032727 6.335817,-3.032727 0.394272,0 1.266668,-0.04133 1.266668,-0.04133 l 0.997556,-5.402098 4.071597,0.872396"
       style="fill:#032647;fill-opacity:1;fill-rule:nonzero;stroke:none;stroke-width:0.01251642"
       id="path814"
       inkscape:connector-curvature="0" />
    <g
       id="g816"
       transform="matrix(0.0134195,0,0,-0.0134195,-131.48643,242.8241)">
      <path
         d="m 12658.3,16291.7 c -141,-319.6 -243.6,-312.9 -247.2,-316.7 -2,0.4 -96.8,-27.2 -148.9,78.2 l 37.4,16.7 c 7,-16.2 20.5,-33.7 35.5,-44.9 33.8,-24.3 65.3,-15.1 68.7,-15.4 2.5,0.9 26.2,5 41.9,17 71.2,44.4 156.6,198.2 193.1,273.4 l 19.5,-8.3"
         style="fill:#1b2a29;fill-opacity:1;fill-rule:nonzero;stroke:none"
         id="path818"
         inkscape:connector-curvature="0" />
    </g>
    <path
       d="m 24.529647,75.898688 c 0,0 24.7137,-24.274371 27.512372,-21.475695 2.798673,2.797417 12.788036,23.212974 12.788036,23.212974 l -30.163354,1.752291 -10.137054,-3.48957"
       style="fill:#494d53;fill-opacity:1;fill-rule:nonzero;stroke:none;stroke-width:0.01251642"
       id="path820"
       inkscape:connector-curvature="0" />
    <g
       id="g822"
       transform="matrix(0.01387046,0,0,-0.01387046,-131.48643,242.8241)">
      <path
         d="m 9816.38,13739 c 0,0 918.62,-55.9 1054.32,-191.7 135.8,-135.8 -79.8,-167.8 -79.8,-231.7 0,-63.9 846.7,-391.4 902.6,-607 55.9,-215.7 199.7,-255.7 287.5,-487.3 87.9,-231.6 231.7,-247.6 231.7,-247.6 0,0 383.4,882.6 463.2,882.6 80,0 127.9,12 199.7,155.8 72,143.8 195.8,419.3 327.6,551.1 131.8,131.8 1070.3,63.9 1254,111.9 183.8,47.9 56,231.6 56,311.5 0,79.9 954.5,283.6 1134.2,463.3 179.8,179.7 487.3,463.3 487.3,463.3 0,0 165.3,-2149 0,-2314.3 -165.3,-165.4 -689.4,-168.1 -1144.8,-623.5 -455.4,-455.4 -4424.7,-304.2 -4424.7,-304.2 0,0 -154.6,895 -335.5,1075.9 -181,181 -413.32,991.9 -413.32,991.9"
         style="fill:#919aa5;fill-opacity:1;fill-rule:nonzero;stroke:none"
         id="path824"
         inkscape:connector-curvature="0" />
    </g>
    <g
       id="g826"
       transform="matrix(0.01387046,0,0,-0.01387046,-131.48643,242.8241)">
      <path
         d="m 14907.9,13473.9 c 178.3,-317 1139.3,-562.8 355.3,-679.5 -784.1,-116.7 -1615.8,202.3 -1727.1,-300.7 -69.4,-313.5 -813.3,-642.6 -1363.9,-846.1 1157.1,5.8 2558.1,68.3 2817.7,327.8 455.4,455.4 979.5,458.1 1144.8,623.5 165.3,165.3 0,2314.3 0,2314.3 0,0 -307.5,-283.6 -487.3,-463.3 -28.2,-28.2 -75.5,-57.1 -135.3,-85.9 -363.4,-356.8 -689.6,-738.4 -604.2,-890.1"
         style="fill:#9fa9b5;fill-opacity:1;fill-rule:nonzero;stroke:none"
         id="path828"
         inkscape:connector-curvature="0" />
    </g>
    <g
       id="g830"
       transform="matrix(0.01415483,0,0,-0.01415483,-131.48643,242.8241)">
      <path
         d="m 14397.4,16182.1 c -27.7,71.7 -79,117.9 -115,104.6 -4.3,-1.6 -575.6,-193.7 -575.2,-193.6 l 100.4,-259.4 572.7,191.2 -0.6,1.5 c 1,0.3 45.5,84.1 17.7,155.7"
         style="fill:#d9e021;fill-opacity:1;fill-rule:nonzero;stroke:none"
         id="path832"
         inkscape:connector-curvature="0" />
    </g>
    <g
       id="g834"
       transform="matrix(0.01402316,0,0,-0.01402316,-131.48643,242.8241)">
      <path
         d="m 13987.2,16300 -27.9,-9.1 c 30.5,-24.9 115.1,-100.6 115.1,-177.6 h 24.9 c 0,79.1 -72.8,152.7 -112.1,186.7"
         style="fill:#263b3a;fill-opacity:1;fill-rule:nonzero;stroke:none"
         id="path836"
         inkscape:connector-curvature="0" />
    </g>
    <g
       id="g838"
       transform="matrix(0.01413305,0,0,-0.01413305,-131.48643,242.8241)">
      <path
         d="m 14237.3,16300 -26.4,-8.6 c -6.4,-47.4 -11.7,-145.2 41.9,-198.8 l 17.4,17.4 c -50.3,50.4 -38.9,153.7 -32.9,190"
         style="fill:#263b3a;fill-opacity:1;fill-rule:nonzero;stroke:none"
         id="path840"
         inkscape:connector-curvature="0" />
    </g>
    <g
       id="g842"
       transform="matrix(0.01398724,0,0,-0.01398724,-131.48643,242.8241)">
      <path
         d="m 13988,16180.1 c 28,-72.5 21.4,-142.6 -14.9,-156.7 -36.2,-14 -88.4,33.4 -116.4,105.9 -28.1,72.5 -21.5,142.6 14.8,156.7 36.2,14 88.4,-33.4 116.5,-105.9"
         style="fill:#6d7011;fill-opacity:1;fill-rule:nonzero;stroke:none"
         id="path844"
         inkscape:connector-curvature="0" />
    </g>
    <g
       id="g846"
       transform="matrix(0.01324677,0,0,-0.01324677,-131.48643,242.8241)">
      <path
         d="m 14144.6,16287.5 -115,12.5 5.3,-110.8 91.9,-4.2 17.8,102.5"
         style="fill:#a97666;fill-opacity:1;fill-rule:nonzero;stroke:none"
         id="path848"
         inkscape:connector-curvature="0" />
    </g>
    <g
       id="g850"
       transform="matrix(0.01254609,0,0,-0.01254609,-131.48643,242.8241)">
      <path
         d="m 14412.3,16300 72,-31.5 -33.1,-108.4 -90.2,40.6 51.3,99.3"
         style="fill:#a97666;fill-opacity:1;fill-rule:nonzero;stroke:none"
         id="path852"
         inkscape:connector-curvature="0" />
    </g>
    <g
       id="g854"
       transform="matrix(0.01297754,0,0,-0.01297754,-131.48643,242.8241)">
      <path
         d="m 13628.2,16300 c 0,0 63.6,-302.5 121.7,-360.7 58.2,-58.2 220.9,-149.9 220.9,-177.1 0,-27.3 -59.2,-121.7 -59.2,-121.7 0,0 -204.9,38.4 -257.7,110.5 -52.9,72 -182.8,244.9 -182.8,244.9 l 157.1,304.1"
         style="fill:#6f1a00;fill-opacity:1;fill-rule:nonzero;stroke:none"
         id="path856"
         inkscape:connector-curvature="0" />
    </g>
    <path
       d="m 50.068172,50.008441 0.476879,0.877402 0.617059,1.152765 0.879909,-1.179047 -0.685901,-1.370553 -1.287946,0.415549 v 0.103881"
       style="fill:#271330;fill-opacity:1;fill-rule:nonzero;stroke:none;stroke-width:0.01251642"
       id="path858"
       inkscape:connector-curvature="0" />
    <path
       d="m 30.458682,48.796851 -1.221605,0.764758 -0.413042,0.259086 -0.719696,1.823646 0.22154,0.448087 2.686025,-2.021401 -0.553222,-1.274176"
       style="fill:#271330;fill-opacity:1;fill-rule:nonzero;stroke:none;stroke-width:0.01251642"
       id="path860"
       inkscape:connector-curvature="0" />
    <g
       id="g862"
       transform="matrix(0.01261043,0,0,-0.01261043,-131.48643,242.8241)">
      <path
         d="m 14393.9,15272.1 c 0,0 -177.9,326.1 -194.4,527.1 l -738,230.6 -29.7,161.5 349.3,108.7 c 0,0 553.5,-345.9 589.8,-382.2 36.2,-36.2 171.3,-596.3 171.3,-596.3 l -148.3,-49.4"
         style="fill:#163d55;fill-opacity:1;fill-rule:nonzero;stroke:none"
         id="path864"
         inkscape:connector-curvature="0" />
    </g>
    <g
       id="g866"
       transform="matrix(0.0137269,0,0,-0.0137269,-131.48643,242.8241)">
      <path
         d="m 15644.9,14529 c -256.6,-134.8 -559.6,-187.9 -833,-273.7 -47.8,-15.1 -96.2,-30.5 -138.8,-56.9 -16.8,-10.4 -33,-23.1 -42.2,-40.5 -37.9,-72.1 101.1,-239.3 -9.2,-285 -150.5,-62.3 -1045.6,32.4 -1293.2,-104.7 -134.3,-74.8 -370.2,-600.5 -408.4,-657.4 -152.7,-229.4 -42,357.2 -610.9,-939.5 -88.5,48.7 -120.9,133.1 -159.4,216.7 -73.2,183.3 -202.2,262.7 -263.6,404.1 -31.2,79.7 -22.1,110.1 -121.1,198.6 -126.6,110.1 -281,189 -429.4,264.9 -123,62.8 -254.6,116.1 -371.4,190.2 -4.3,2.7 -19.9,10.1 -19.9,15.6 0,12 50.3,40.8 59.6,48.5 32.3,26.4 60,61.5 55.8,105.4 -4.1,44.3 -36.7,81.5 -70.9,107.1 -172.4,120.4 -860.2,153.1 -1069.83,160.3 177.03,-17.3 895.33,-95.6 1035.43,-205.9 16.7,-13 42.9,-45.1 44.4,-67.4 2.1,-32.7 -44.7,-55.6 -66.7,-71 -42.8,-30.1 -88.6,-75.8 -41.3,-124.6 34.7,-35.9 86.8,-62 130,-86.1 47,-26.2 95.2,-50.3 142.5,-75.8 676.5,-364.4 577.9,-387.2 628.2,-498.9 69.8,-169.4 190.6,-232.8 256.5,-406.6 39.8,-105.2 132,-273.4 248.1,-307.5 104.7,-30.7 119.8,89.2 153.2,165.7 51.2,117.4 102.6,235 164.1,347.6 60.5,124.2 118.1,274.5 211.8,378.4 220.1,5.2 218.4,215.1 437.5,572.6 53.4,86.6 87,125.9 120.1,161 159.9,76.9 370,69.5 542.9,74.6 218.9,6.6 447.2,-9.6 664.2,25.5 54.6,8.8 110.8,32.3 139.9,79.3 24.2,39 26,88 19.3,133.3 -7.3,49.4 -23.7,96.9 -40.1,144 179.4,102.9 399.5,149.1 593.5,217.4 160.6,56.4 391.9,113.4 514.2,240.6 158.7,164.8 321.5,325.4 483.2,487.2 -203.4,-152.1 -363,-360 -579,-493.7 -24.9,-15.4 -50.2,-29.8 -76.1,-43.4"
         style="fill:#485669;fill-opacity:1;fill-rule:nonzero;stroke:none"
         id="path868"
         inkscape:connector-curvature="0" />
    </g>
    <g
       id="g870"
       transform="matrix(0.01320684,0,0,-0.01320684,-131.48643,242.8241)">
      <path
         d="m 13199.6,16296.9 c 0,0 -50.4,3.1 -110.1,-97.6 -59.8,-100.6 -182.5,-487.6 -232.8,-604 -50.3,-116.4 -50.3,-129 -50.3,-176.1 0,-47.2 402.6,44 449.8,91.2 47.2,47.2 163.6,468.7 182.5,563.1 18.8,94.4 -239.1,223.4 -239.1,223.4"
         style="fill:#d87306;fill-opacity:1;fill-rule:nonzero;stroke:none"
         id="path872"
         inkscape:connector-curvature="0" />
    </g>
    <g
       id="g874"
       transform="matrix(0.01331661,0,0,-0.01331661,-131.48643,242.8241)">
      <path
         d="m 13059.7,16244.3 c 0,0 220.4,-345.4 99.8,-523.4 -120.7,-178 -312.1,-215.5 -312.1,-215.5 l -58.4,-94.7 c 0,0 346.3,55.8 433.3,360.2 86.9,304.5 -140.7,529.1 -140.7,529.1 l -21.9,-55.7"
         style="fill:#1b2a29;fill-opacity:1;fill-rule:nonzero;stroke:none"
         id="path876"
         inkscape:connector-curvature="0" />
    </g>
    <g
       id="g878"
       transform="matrix(0.0135384,0,0,-0.0135384,-131.48643,242.8241)">
      <path
         d="m 12881.9,16300 c 0,0 70.8,-47.2 104.7,-118.3 34,-71.1 289.9,-209.8 289.9,-209.8 0,0 -148.9,-37.9 -153,-41.9 -4,-4.1 -289.1,123 -289.1,123 l 47.5,247"
         style="fill:#a74326;fill-opacity:1;fill-rule:nonzero;stroke:none"
         id="path880"
         inkscape:connector-curvature="0" />
    </g>
    <g
       id="g882"
       transform="matrix(0.01339747,0,0,-0.01339747,-131.48643,242.8241)">
      <path
         d="m 13245,16100.2 c 3.1,21.2 9.9,40.6 14.6,72.2 6.7,45.1 14.1,78.7 14.1,78.7 l -111.7,48.9 c 0,0 -17.8,-73 -30.9,-131 -8.6,-38.1 111.8,-82.8 113.9,-68.8"
         style="fill:#fc7575;fill-opacity:1;fill-rule:nonzero;stroke:none"
         id="path884"
         inkscape:connector-curvature="0" />
    </g>
    <g
       id="g886"
       transform="matrix(0.01339747,0,0,-0.01339747,-131.48643,242.8241)">
      <path
         d="m 13162,16300 c 0,0 -2.9,-12.9 -7.5,-33 9.1,-13.5 22,-27.9 40,-46.2 18,-18.3 41.1,-35.8 65.1,-48.4 6.7,45.1 14.1,78.7 14.1,78.7 l -111.7,48.9"
         style="fill:#fd5e5a;fill-opacity:1;fill-rule:nonzero;stroke:none"
         id="path888"
         inkscape:connector-curvature="0" />
    </g>
    <g
       id="g890"
       transform="matrix(0.01365719,0,0,-0.01365719,-131.48643,242.8241)">
      <path
         d="m 13177.9,16146.1 c 0,0 -96.4,-95.5 -133.1,-105.1 -36.5,-9.5 -117.6,-22.3 -117.6,-22.3 0,0 -43.6,-143.8 -48.6,-175.7 0,0 -140.3,31.2 -58.6,256.9 31.2,86.1 46.4,141.1 143.8,170.6 97.4,29.5 191.7,-36.9 214.1,-124.4"
         style="fill:#00147d;fill-opacity:1;fill-rule:nonzero;stroke:none"
         id="path892"
         inkscape:connector-curvature="0" />
    </g>
    <g
       id="g894"
       transform="matrix(0.01359347,0,0,-0.01359347,-131.48643,242.8241)">
      <path
         d="m 13172,16257 c 0,0 59.4,-25.4 60.6,-71 1.4,-45.7 -12.2,-67.2 -11.6,-89.2 0.7,-22.1 -6,-62.4 -39.6,-122.5 -33.7,-60 -123,-16.3 -171.7,33.3 -54.9,55.9 -58.9,71.7 -50.6,153.1 8.3,81.4 118.3,139.3 212.9,96.3"
         style="fill:#fc7575;fill-opacity:1;fill-rule:nonzero;stroke:none"
         id="path896"
         inkscape:connector-curvature="0" />
    </g>
    <g
       id="g898"
       transform="matrix(0.0134245,0,0,-0.0134245,-131.48643,242.8241)">
      <path
         d="m 13319,16246.9 c -0.3,7.1 9,-2 28.2,18.9 -5.6,10.5 -8.1,23.2 -7.7,34.2 3.8,-22.7 15.2,-32.6 16.6,-34.7 -0.8,-0.6 -16,-20.6 -33.3,-21.6 v 0 c -2,-0.1 -3.7,1.4 -3.8,3.2"
         style="fill:#0028a6;fill-opacity:1;fill-rule:nonzero;stroke:none"
         id="path900"
         inkscape:connector-curvature="0" />
    </g>
    <g
       id="g902"
       transform="matrix(0.01344102,0,0,-0.01344102,-131.48643,242.8241)">
      <path
         d="m 13268.2,16281.9 c 4.2,-3.7 10.7,-3.5 14.7,0.4 3.9,4 3.7,10.2 -0.5,14 -4.1,3.7 -10.6,3.5 -14.5,-0.5 -3.9,-3.9 -3.8,-10.2 0.3,-13.9"
         style="fill:#0028a6;fill-opacity:1;fill-rule:nonzero;stroke:none"
         id="path904"
         inkscape:connector-curvature="0" />
    </g>
    <g
       id="g906"
       transform="matrix(0.01343702,0,0,-0.01343702,-131.48643,242.8241)">
      <path
         d="m 13357.5,16281.9 c 4.2,-3.7 10.6,-3.5 14.5,0.4 3.9,4 3.7,10.2 -0.4,14 -4.1,3.7 -10.6,3.5 -14.5,-0.5 -3.9,-3.9 -3.7,-10.2 0.4,-13.9"
         style="fill:#0028a6;fill-opacity:1;fill-rule:nonzero;stroke:none"
         id="path908"
         inkscape:connector-curvature="0" />
    </g>
    <g
       id="g910"
       transform="matrix(0.0134449,0,0,-0.0134449,-131.48643,242.8241)">
      <path
         d="m 13303.6,16297.9 c -11.5,2.1 -23.3,2 -35.1,-0.3 -6,-1.4 -11.2,-3.2 -16.5,-5.2 -5.3,-2.1 -10.6,-4.2 -15.9,-7.1 6.1,-0.5 12,0.3 17.6,1.4 5.8,1 11.3,3.3 16.4,4.6 10.8,2.7 22.1,4.3 33.5,6.6"
         style="fill:#00115b;fill-opacity:1;fill-rule:nonzero;stroke:none"
         id="path912"
         inkscape:connector-curvature="0" />
    </g>
    <g
       id="g914"
       transform="matrix(0.01343965,0,0,-0.01343965,-131.48643,242.8241)">
      <path
         d="m 13386,16298.9 c -8.5,1.1 -17.5,0.5 -26.3,-1.8 -4.7,-1.3 -8.7,-2.9 -12.8,-4.7 -4.1,-1.8 -8.2,-3.7 -12.2,-6.1 4.5,-0.1 8.9,0.8 13.2,1.9 4.4,1 8.7,3 12.6,4.2 8.2,2.5 16.8,4.3 25.5,6.5"
         style="fill:#00115b;fill-opacity:1;fill-rule:nonzero;stroke:none"
         id="path916"
         inkscape:connector-curvature="0" />
    </g>
    <g
       id="g918"
       transform="matrix(0.01347544,0,0,-0.01347544,-131.48643,242.8241)">
      <path
         d="m 13276.2,16290.4 -6,-11.6 c 0,0 -30.7,4.5 -45.3,-6.2 0,0 26.1,27.4 51.3,17.8"
         style="fill:#00115b;fill-opacity:1;fill-rule:nonzero;stroke:none"
         id="path920"
         inkscape:connector-curvature="0" />
    </g>
    <g
       id="g922"
       transform="matrix(0.01347394,0,0,-0.01347394,-131.48643,242.8241)">
      <path
         d="m 13346.9,16290.4 -3.2,-11.1 c 0,0 -30.7,4.5 -45.3,-6.2 0,0 23.3,26.9 48.5,17.3"
         style="fill:#00115b;fill-opacity:1;fill-rule:nonzero;stroke:none"
         id="path924"
         inkscape:connector-curvature="0" />
    </g>
    <g
       id="g926"
       transform="matrix(0.01336918,0,0,-0.01336918,-131.48643,242.8241)">
      <path
         d="m 13396.4,16279.8 c 0,0 -35.1,6.7 -63.7,20.2 0,0 22.9,-44.2 39.9,-43.7 16.9,0.5 23.8,23.5 23.8,23.5"
         style="fill:#ffffff;fill-opacity:1;fill-rule:nonzero;stroke:none"
         id="path928"
         inkscape:connector-curvature="0" />
    </g>
    <g
       id="g930"
       transform="matrix(0.01360849,0,0,-0.01360849,-131.48643,242.8241)">
      <path
         d="m 13220,16275.8 c 0,0 47.8,-11.9 37.4,-56.1 -10.4,-44.3 -132.3,-88.1 -211.2,-71.9 -29.6,6.1 -30.7,-10.9 -43.3,-21 -20.8,-16.7 -39.4,-37.9 -24.8,-74.5 23.3,-58.6 51.5,-31.1 51.5,-31.1 0,0 -25.9,-32.2 -94.3,-8 -68.6,24.2 -70.5,123.8 -14.4,177.2 56,53.4 111.6,76.2 155.9,86.7 96.4,22.9 143.2,-1.3 143.2,-1.3"
         style="fill:#2846a6;fill-opacity:1;fill-rule:nonzero;stroke:none"
         id="path932"
         inkscape:connector-curvature="0" />
    </g>
    <g
       id="g934"
       transform="matrix(0.01347819,0,0,-0.01347819,-131.48643,242.8241)">
      <path
         d="m 13103.2,16298.1 c 8.3,-0.7 42.1,-26.8 30.7,-50.6 -11.3,-23.7 -20.7,-24.8 -42.7,-11.7 -22.1,13.1 -8.8,64.2 12,62.3"
         style="fill:#fc7575;fill-opacity:1;fill-rule:nonzero;stroke:none"
         id="path936"
         inkscape:connector-curvature="0" />
    </g>
    <g
       id="g938"
       transform="matrix(0.0134668,0,0,-0.0134668,-131.48643,242.8241)">
      <path
         d="m 13135.7,16277.9 c 0,0 -16,22.1 -25.5,12.4 -9.6,-9.7 -7.9,-27.7 3.9,-34.3 11.9,-6.6 32.5,8.6 21.6,21.9"
         style="fill:#fd5e5a;fill-opacity:1;fill-rule:nonzero;stroke:none"
         id="path940"
         inkscape:connector-curvature="0" />
    </g>
    <g
       id="g942"
       transform="matrix(0.0134195,0,0,-0.0134195,-131.48643,242.8241)">
      <path
         d="m 13231.4,16281.2 c -1.1,-11.2 13,-21.5 31.5,-23.2 18.5,-1.7 34.4,6 35.6,17.1 1.1,11.2 -13,21.6 -31.6,23.2 -18.5,1.7 -34.4,-6 -35.5,-17.1"
         style="fill:#fd5e5a;fill-opacity:1;fill-rule:nonzero;stroke:none"
         id="path944"
         inkscape:connector-curvature="0" />
    </g>
    <g
       id="g946"
       transform="matrix(0.0134036,0,0,-0.0134036,-131.48643,242.8241)">
      <path
         d="m 13379,16282.7 c 0.9,9.5 12.6,16.5 27.4,17.3 -1.7,-10.6 -4.8,-23 -9.8,-37.4 -11.1,4.3 -18.4,12 -17.6,20.1"
         style="fill:#fd5e5a;fill-opacity:1;fill-rule:nonzero;stroke:none"
         id="path948"
         inkscape:connector-curvature="0" />
    </g>
    <g
       id="g950"
       transform="matrix(0.0135384,0,0,-0.0135384,-131.48643,242.8241)">
      <path
         d="m 13276.5,15971.9 c 0,0 -253.7,51.2 -317.7,115.1 -75.1,75.1 -76.9,213 -76.9,213 0,0 -48.7,-2.6 -76.7,-30.6 -28,-28 -262.9,-425.2 29.2,-407.4 134.1,8.1 265.7,-4.5 265.7,-4.5 l 176.4,114.4"
         style="fill:#f3eeb5;fill-opacity:1;fill-rule:nonzero;stroke:none"
         id="path952"
         inkscape:connector-curvature="0" />
    </g>
    <g
       id="g954"
       transform="matrix(0.01329183,0,0,-0.01329183,-131.48643,242.8241)">
      <path
         d="m 13065.2,16192.7 c 0,0 -21.4,-112 40.7,-174 61.9,-62 521.9,-41.7 567.8,-27.1 45.8,14.6 203.9,78.4 276.8,89.7 72.9,11.3 92.3,156.2 61.1,187.4 -31.2,31.3 -254.6,-76 -362.9,-76 -108.4,0 -519.4,64.1 -583.5,0"
         style="fill:#d3ac5e;fill-opacity:1;fill-rule:nonzero;stroke:none"
         id="path956"
         inkscape:connector-curvature="0" />
    </g>
    <g
       id="g958"
       transform="matrix(0.01352639,0,0,-0.01352639,-131.48643,242.8241)">
      <path
         d="m 12878.7,15850.5 c 0,0 80.8,246.8 27.6,316.4 -53.3,69.6 -151.5,133.1 -264.2,94.2 -112.6,-38.9 -219.1,-325.6 -260.1,-382.9 -40.9,-57.4 -114.6,-63.5 -114.6,-161.8 0,-98.3 -88,-239.6 -88,-358.4 0,-118.7 346,-237.5 413.6,-206.8 67.6,30.7 285.7,699.3 285.7,699.3"
         style="fill:#4f5411;fill-opacity:1;fill-rule:nonzero;stroke:none"
         id="path960"
         inkscape:connector-curvature="0" />
    </g>
    <g
       id="g962"
       transform="matrix(0.01273785,0,0,-0.01273785,-131.48643,242.8241)">
      <path
         d="m 13074.7,16258.8 c -52.5,35.7 -101.7,41.2 -140,36.8 24.1,-121.5 368.6,-237.9 437.9,-206.4 4.5,2.1 9.7,6.9 15.5,14.1 -77.1,32.1 -229.6,98.5 -313.4,155.5"
         style="fill:#3b3f0d;fill-opacity:1;fill-rule:nonzero;stroke:none"
         id="path964"
         inkscape:connector-curvature="0" />
    </g>
    <g
       id="g966"
       transform="matrix(0.01354367,0,0,-0.01354367,-131.48643,242.8241)">
      <path
         d="m 12427.6,15942.8 -69.5,29.1 c 0,0 182.4,328.1 368.3,277.8 l -298.8,-306.9"
         style="fill:#3b3f0d;fill-opacity:1;fill-rule:nonzero;stroke:none"
         id="path968"
         inkscape:connector-curvature="0" />
    </g>
    <g
       id="g970"
       transform="matrix(0.01322225,0,0,-0.01322225,-131.48643,242.8241)">
      <path
         d="m 12810.4,16272.8 c 0,0 -153.9,-318.5 -135.1,-377.1 18.8,-58.7 172.2,-154.9 236.9,-129.8 64.8,25.1 184.2,377 184.2,377 0,0 -42,157.1 -286,129.9"
         style="fill:#3b3f0d;fill-opacity:1;fill-rule:nonzero;stroke:none"
         id="path972"
         inkscape:connector-curvature="0" />
    </g>
    <g
       id="g974"
       transform="matrix(0.01401866,0,0,-0.01401866,-131.48643,242.8241)">
      <path
         d="m 14522.8,16042.8 c 0,0 -13,202.2 -92.7,229.7 -79.7,27.5 -403.3,-144.6 -471.8,-144.6 -68.4,0 -123.4,-202.3 0,-325.7 123.4,-123.4 230.3,-458.3 307,-535.1 76.8,-76.7 601.4,-64.2 568.3,151.4 -33.2,215.7 -310.8,624.3 -310.8,624.3"
         style="fill:#263b3a;fill-opacity:1;fill-rule:nonzero;stroke:none"
         id="path976"
         inkscape:connector-curvature="0" />
    </g>
    <g
       id="g978"
       transform="matrix(0.01372791,0,0,-0.01372791,-131.48643,242.8241)">
      <path
         d="m 14343,16300 -38.3,-60.6 c -54.5,-139.2 -35.1,-385.3 -84.1,-405.6 -82.7,-34.3 -239.3,-137 -239.3,-137 0,0 59.1,-32.1 59.1,-121.2 0,0 203.8,37.6 291.5,67.9 87.8,30.3 219.6,442.9 219.6,442.9 L 14343,16300"
         style="fill:#aa5e04;fill-opacity:1;fill-rule:nonzero;stroke:none"
         id="path980"
         inkscape:connector-curvature="0" />
    </g>
    <g
       id="g982"
       transform="matrix(0.01417148,0,0,-0.01417148,-131.48643,242.8241)">
      <path
         d="m 14108.8,16024.2 c 2.7,3.7 2.5,134.3 2.5,134.3 0,0 -3.7,96.5 -27.8,103.2 -24.2,6.7 -87.5,38.3 -126.6,23.3 -39.1,-15 -60.4,-37.9 -63,-41.6 -2.6,-3.8 -10.7,-58.6 -10.7,-58.6 0,0 6,19.8 33.4,-33.4 27.4,-53.2 192.2,-127.2 192.2,-127.2"
         style="fill:#381a3f;fill-opacity:1;fill-rule:nonzero;stroke:none"
         id="path984"
         inkscape:connector-curvature="0" />
    </g>
    <g
       id="g986"
       transform="matrix(0.01401853,0,0,-0.01401853,-131.48643,242.8241)">
      <path
         d="m 14161.9,16163.6 c 10.3,-12.7 98.6,-109.2 79.2,-150.2 -5.9,-12.6 124.1,-10.2 90.2,84.7 -33.9,94.9 -85.2,201.9 -85.2,201.9 l -84.2,-136.4"
         style="fill:#fc7575;fill-opacity:1;fill-rule:nonzero;stroke:none"
         id="path988"
         inkscape:connector-curvature="0" />
    </g>
    <g
       id="g990"
       transform="matrix(0.01401853,0,0,-0.01401853,-131.48643,242.8241)">
      <path
         d="m 14246.1,16300 c 0,0 13.1,-27.3 30.4,-66.6 -1.7,-46 -23.8,-112.3 -64.1,-133.9 -20.9,30.7 -45.4,57.8 -50.5,64.1 l 84.2,136.4"
         style="fill:#fd5e5a;fill-opacity:1;fill-rule:nonzero;stroke:none"
         id="path992"
         inkscape:connector-curvature="0" />
    </g>
    <g
       id="g994"
       transform="matrix(0.01413568,0,0,-0.01413568,-131.48643,242.8241)">
      <path
         d="m 14099.5,16252.1 c 28.6,-31.4 55.5,-99.3 41.4,-164.9 -14.3,-65.5 -51,-111.4 -94.7,-99.2 -43.6,12.2 -115.9,171.5 -107.7,223.5 8.2,52 117.5,88.5 161,40.6"
         style="fill:#fc7575;fill-opacity:1;fill-rule:nonzero;stroke:none"
         id="path996"
         inkscape:connector-curvature="0" />
    </g>
    <g
       id="g998"
       transform="matrix(0.01425458,0,0,-0.01425458,-131.48643,242.8241)">
      <path
         d="m 14041.5,15961.1 c 0,0 -12.8,56.1 1.6,76.9 14.4,20.8 20.1,32.3 16.4,52.4 -3.7,20.1 56,59.1 33.7,85.5 -22.4,26.5 -78.4,20.1 -124.6,63 -46.2,42.9 -85.3,61.1 -137.7,17 -52.5,-44 -46,-85.8 -46,-85.8 0,0 -28.3,-6 -31.7,-45.8 -3.4,-39.9 15.4,-54 31.8,-65.3 0,0 -19,42.9 -3.6,45.8 15.6,2.8 19.6,-51.3 19.6,-51.3 0,0 14.4,27.3 26.4,65.2 11.9,38 19.1,2.3 26.2,-36.7 7.2,-39 44.9,16 57.4,51.4 12.5,35.5 54.3,24.3 80.3,-8 26.1,-32.3 -2.4,-111.5 50.2,-164.3"
         style="fill:#653870;fill-opacity:1;fill-rule:nonzero;stroke:none"
         id="path1000"
         inkscape:connector-curvature="0" />
    </g>
    <g
       id="g1002"
       transform="matrix(0.01408011,0,0,-0.01408011,-131.48643,242.8241)">
      <path
         d="m 14166.5,16252.9 c 0,0 6.7,47.1 24.2,35 17.5,-12.1 27.4,-65.6 4.1,-75.8 -23.4,-10.2 -28.3,40.8 -28.3,40.8"
         style="fill:#fc7575;fill-opacity:1;fill-rule:nonzero;stroke:none"
         id="path1004"
         inkscape:connector-curvature="0" />
    </g>
    <g
       id="g1006"
       transform="matrix(0.01406021,0,0,-0.01406021,-131.48643,242.8241)">
      <path
         d="m 14199.7,16278.1 c 0,0 -9.3,21.9 5,19.2 14.4,-2.6 16.5,-43.1 5.6,-46.7 -10.8,-3.7 -10.6,27.5 -10.6,27.5"
         style="fill:#fd5e5a;fill-opacity:1;fill-rule:nonzero;stroke:none"
         id="path1008"
         inkscape:connector-curvature="0" />
    </g>
    <g
       id="g1010"
       transform="matrix(0.01400714,0,0,-0.01400714,-131.48643,242.8241)">
      <path
         d="m 14127.7,16300 c -0.2,-11.9 1.1,-23.7 3.6,-35.3 5.7,-25.1 13.2,-33.7 13.9,-35.1 2.4,1.5 8.9,5.5 17.1,11.8 -5.9,-2.2 -11.8,-4.8 -17.5,-7.6 l 2.5,-0.7 c -9.2,21 -13.4,44.1 -19.6,66.9"
         style="fill:#172866;fill-opacity:1;fill-rule:nonzero;stroke:none"
         id="path1012"
         inkscape:connector-curvature="0" />
    </g>
    <g
       id="g1014"
       transform="matrix(0.01394356,0,0,-0.01394356,-131.48643,242.8241)">
      <path
         d="m 14270.9,16295.6 c 0.5,3.6 -5,4.4 -5.5,0.8 -0.2,-1.2 -4.7,-28.7 -31.3,-33.6 -1.5,-0.2 -2.5,-1.7 -2.3,-3.2 1.5,-7.8 33.8,5.1 39.1,36"
         style="fill:#172866;fill-opacity:1;fill-rule:nonzero;stroke:none"
         id="path1016"
         inkscape:connector-curvature="0" />
    </g>
    <g
       id="g1018"
       transform="matrix(0.01402591,0,0,-0.01402591,-131.48643,242.8241)">
      <path
         d="m 14140,16284.4 c 1.3,-7.2 6.5,-12.3 11.5,-11.4 5.1,1 8.1,7.5 6.8,14.7 -1.4,7.2 -6.5,12.3 -11.5,11.4 -5.1,-1 -8.2,-7.5 -6.8,-14.7"
         style="fill:#2846a6;fill-opacity:1;fill-rule:nonzero;stroke:none"
         id="path1020"
         inkscape:connector-curvature="0" />
    </g>
    <g
       id="g1022"
       transform="matrix(0.01401152,0,0,-0.01401152,-131.48643,242.8241)">
      <path
         d="m 14086.6,16284.4 c 1.2,-7.2 6.4,-12.3 11.5,-11.4 5,0.9 8.1,7.5 6.8,14.7 -1.3,7.2 -6.5,12.3 -11.6,11.4 -5,-0.9 -8.1,-7.5 -6.7,-14.7"
         style="fill:#2846a6;fill-opacity:1;fill-rule:nonzero;stroke:none"
         id="path1024"
         inkscape:connector-curvature="0" />
    </g>
    <g
       id="g1026"
       transform="matrix(0.0140522,0,0,-0.0140522,-131.48643,242.8241)">
      <path
         d="m 14143.6,16285.9 c 0,0 -16.8,14.1 -34.6,10.9 -17.7,-3.3 -7.2,-15.8 -3,-15 4.1,0.8 36.9,7.8 37.6,4.1"
         style="fill:#172866;fill-opacity:1;fill-rule:nonzero;stroke:none"
         id="path1028"
         inkscape:connector-curvature="0" />
    </g>
    <g
       id="g1030"
       transform="matrix(0.01403818,0,0,-0.01403818,-131.48643,242.8241)">
      <path
         d="m 14067.8,16300 c 0,0 -17.2,-14 -17.3,-24.9 0,0 19.9,10.2 21.7,16.8 1.8,6.6 -4.4,8.1 -4.4,8.1"
         style="fill:#172866;fill-opacity:1;fill-rule:nonzero;stroke:none"
         id="path1032"
         inkscape:connector-curvature="0" />
    </g>
    <g
       id="g1034"
       transform="matrix(0.01325277,0,0,-0.01325277,-131.48643,242.8241)">
      <path
         d="m 12694.1,16080.6 305.9,-150 66.1,175 v 41.8 c 0,0 -72,88.7 -234.1,123.3 0,0 -77.3,29.3 -137.9,-190.1"
         style="fill:#727641;fill-opacity:1;fill-rule:nonzero;stroke:none"
         id="path1036"
         inkscape:connector-curvature="0" />
    </g>
    <g
       id="g1038"
       transform="matrix(0.013892,0,0,-0.013892,-131.48643,242.8241)">
      <path
         d="m 14957.5,15488.1 c -23,-41.9 -47.5,-69.1 -110.2,-98.5 -22.3,-10.3 -74.8,-27.4 -135.1,-44.5 -6,-1.7 -12.1,-3.5 -18.4,-5 -105.2,-29.1 -226.2,-55.7 -250.4,-46.7 -39.6,14.6 -44,157.8 -58.4,276.3 -61.1,500 -224.8,504.8 -211.5,537.7 20.8,51.7 69,73.3 69,73.3 22.4,22.1 71.9,45.2 127.4,65.3 6.8,2.3 13.5,4.8 20.3,7 80.9,27.4 168.8,47 201.4,47 58.3,0 136.4,-85.9 163.8,-215.5 27.1,-129.8 225,-554.7 202.1,-596.4"
         style="fill:#f7931e;fill-opacity:1;fill-rule:nonzero;stroke:none"
         id="path1040"
         inkscape:connector-curvature="0" />
    </g>
    <g
       id="g1042"
       transform="matrix(0.01394556,0,0,-0.01394556,-131.48643,242.8241)">
      <path
         d="m 14462.1,16206.2 c -10.3,-24 -44.7,-49.6 -85.3,-68.8 -5.8,-3 -12,-5.8 -18.1,-8.3 -46.2,-19.5 -96.3,-30.3 -126.1,-23 -22.9,5.5 -72.7,60.5 -72.7,60.5 52.3,6 97.1,19.6 134.6,35.6 6.4,2.7 12.7,5.7 18.7,8.7 81.4,39.3 121.8,89.1 121.8,89.1 l 27.1,-93.8"
         style="fill:#ffcb57;fill-opacity:1;fill-rule:nonzero;stroke:none"
         id="path1044"
         inkscape:connector-curvature="0" />
    </g>
    <g
       id="g1046"
       transform="matrix(0.01386933,0,0,-0.01386933,-131.48643,242.8241)">
      <path
         d="m 14736.3,15370.2 c -6.1,-1.7 -12.1,-3.5 -18.4,-5 -15.8,91.1 -77.2,404.8 -186.1,447.5 -132.3,52.1 -95.7,331.1 -94.2,405 v 4.1 c -0.7,7 -19.8,28.1 -44.2,50.8 -6.6,6 -13.3,12.3 -20.4,18.6 6.5,2.8 12.8,5.8 18.9,8.8 7,-6.3 14.6,-13.1 21.8,-20.4 20.2,-19.6 38.6,-40.2 42.1,-53.6 0.4,-1.5 0.7,-3 0.7,-4.2 0,-24.2 -42.5,-342.4 82,-391.5 118.8,-46.5 181.4,-364.5 197.8,-460.1"
         style="fill:#a18a82;fill-opacity:1;fill-rule:nonzero;stroke:none"
         id="path1048"
         inkscape:connector-curvature="0" />
    </g>
    <g
       id="g1050"
       transform="matrix(0.01380288,0,0,-0.01380288,-131.48643,242.8241)">
      <path
         d="m 14264.5,16240.3 c 0,0 131.1,-169.8 162.7,-327.9 31.8,-158.1 3.5,-193.3 3.5,-193.3 l 47.7,-84.6 c 0,0 58.4,218.9 37.3,339 -21,120.1 -193.9,326.5 -193.9,326.5 l -57.3,-59.7"
         style="fill:#563918;fill-opacity:1;fill-rule:nonzero;stroke:none"
         id="path1052"
         inkscape:connector-curvature="0" />
    </g>
    <g
       id="g1054"
       transform="matrix(0.01391514,0,0,-0.01391514,-131.48643,242.8241)">
      <path
         d="m 14584.5,16300 -71,-15.2 c 0,0 96,-372.5 290.6,-383.2 l -19.1,49.5 c 0,0 -169.2,194.3 -200.5,348.9"
         style="fill:#563918;fill-opacity:1;fill-rule:nonzero;stroke:none"
         id="path1056"
         inkscape:connector-curvature="0" />
    </g>
    <path
       d="m 51.16211,52.038608 c 0,0 -0.300388,-0.376749 -0.608295,-0.255335 l -0.08135,0.315414 h 0.649599 l 0.04006,-0.0601"
       style="fill:#36414f;fill-opacity:1;fill-rule:nonzero;stroke:none;stroke-width:0.01251642"
       id="path1058"
       inkscape:connector-curvature="0" />
    <path
       d="m 52.256047,50.236245 c 0,0 0.617061,0.66587 0.828592,0.87615 0.210274,0.211525 1.118968,-0.145193 1.703483,-0.06385 0.584515,0.08135 0.584515,0.859885 0.584515,0.859885 l -1.519491,1.191565 -1.142753,0.236559 c 0,0 -0.648347,0.503155 -0.957506,0.503155 -0.307906,0 -0.965012,-1.630887 -0.794795,-1.80111 0.170229,-0.170223 0.87615,-0.796051 0.87615,-1.217852 0,-0.421806 0.421805,-0.584515 0.421805,-0.584515"
       style="fill:#485669;fill-opacity:1;fill-rule:nonzero;stroke:none;stroke-width:0.01251642"
       id="path1060"
       inkscape:connector-curvature="0" />
    <path
       d="m 53.272384,51.441579 c -0.677143,0 -0.99631,-0.346708 -1.295453,-0.408042 -0.224044,-0.04505 -0.309151,0.58077 -1.018839,1.005071 0.222799,-0.251582 0.489397,-0.653358 0.624573,-0.893675 0.06384,-0.08385 0.08886,-0.262844 0.305398,-0.302897 0.211532,-0.03754 0.521942,0.188998 0.720949,0.31041 0.204018,0.117653 0.42681,0.215279 0.663372,0.289133"
       style="fill:#36414f;fill-opacity:1;fill-rule:nonzero;stroke:none;stroke-width:0.01251642"
       id="path1062"
       inkscape:connector-curvature="0" />
    <path
       d="m 53.150973,51.046055 -0.35797,0.5745 0.09012,0.0576 0.389262,-0.584517 -0.121411,-0.04758"
       style="fill:#f3eeb5;fill-opacity:1;fill-rule:nonzero;stroke:none;stroke-width:0.01251642"
       id="path1064"
       inkscape:connector-curvature="0" />
    <path
       d="m 53.361247,51.117399 -0.284116,0.560738 h 0.07384 l 0.37299,-0.560738 h -0.162715"
       style="fill:#f3eeb5;fill-opacity:1;fill-rule:nonzero;stroke:none;stroke-width:0.01251642"
       id="path1066"
       inkscape:connector-curvature="0" />
    <path
       d="m 52.67034,52.969827 c 0.101386,-0.101386 0.843611,-0.08264 1.12022,-0.131417 0.197763,-0.03503 1.031357,-0.972531 1.481948,-1.396831 0.168972,0.20902 0.181491,0.401772 0.181491,0.401772 l -1.608361,1.294203 -1.135245,0.19901 c 0,0 -0.648347,0.503154 -0.957506,0.503154 -0.0826,0 -0.191499,-0.118899 -0.302896,-0.296638 0.460606,-0.271596 1.152764,-0.50566 1.220349,-0.573253"
       style="fill:#d87306;fill-opacity:1;fill-rule:nonzero;stroke:none;stroke-width:0.01251642"
       id="path1068"
       inkscape:connector-curvature="0" />
    <path
       d="m 53.828109,51.397768 c 0.67339,-0.297892 1.286695,-0.09888 1.175292,0.09388 -0.132668,0.231549 -0.204012,-0.335445 -1.175292,-0.09388"
       style="fill:#6d7887;fill-opacity:1;fill-rule:nonzero;stroke:none;stroke-width:0.01251642"
       id="path1070"
       inkscape:connector-curvature="0" />
    <path
       d="m 71.883066,46.097061 c 0,0 -0.001,-0.425559 0.28287,-0.511924 l 0.23281,0.172725 -0.4531,0.359221 -0.06259,-0.02003"
       style="fill:#36414f;fill-opacity:1;fill-rule:nonzero;stroke:none;stroke-width:0.01251642"
       id="path1072"
       inkscape:connector-curvature="0" />
    <g
       id="g1074"
       transform="matrix(0.01252645,0,0,-0.01252645,-131.48643,242.8241)">
      <path
         d="m 16093.8,15755.9 c 0,0 -4.7,-63.8 -7.1,-84.7 -2.3,-21 -69,-41.4 -98,-71.6 -28.9,-30.3 5.8,-73.2 5.8,-73.2 l 138.1,1.4 74.3,37.3 c 0,0 58.6,1 75.9,14.6 17.2,13.6 -19,132.4 -36.2,134.3 -17,1.9 -84.4,5.1 -103.2,28.4 -18.9,23.2 -49.6,13.5 -49.6,13.5"
         style="fill:#603e6b;fill-opacity:1;fill-rule:nonzero;stroke:none"
         id="path1076"
         inkscape:connector-curvature="0" />
    </g>
    <path
       d="m 70.074443,46.851799 c 0.473124,-0.37424 0.50316,-0.791041 0.677136,-0.997561 0.131429,-0.155203 0.54196,0.229049 1.274177,0.130171 -0.296641,-0.05004 -0.707179,-0.180238 -0.936234,-0.271603 -0.09136,-0.02256 -0.209023,-0.131423 -0.382999,-0.04006 -0.168972,0.09137 -0.259092,0.419297 -0.330436,0.61205 -0.07634,0.195257 -0.177729,0.384255 -0.301644,0.566997"
       style="fill:#36414f;fill-opacity:1;fill-rule:nonzero;stroke:none;stroke-width:0.01251642"
       id="path1078"
       inkscape:connector-curvature="0" />
    <path
       d="m 69.93801,46.511354 0.572002,0.199007 -0.03128,0.08886 -0.598279,-0.187748 0.05758,-0.100127"
       style="fill:#f3eeb5;fill-opacity:1;fill-rule:nonzero;stroke:none;stroke-width:0.01251642"
       id="path1080"
       inkscape:connector-curvature="0" />
    <path
       d="m 69.831624,46.677824 0.511919,0.229048 -0.05257,0.04006 -0.573247,-0.180238 0.113899,-0.08886"
       style="fill:#f3eeb5;fill-opacity:1;fill-rule:nonzero;stroke:none;stroke-width:0.01251642"
       id="path1082"
       inkscape:connector-curvature="0" />
    <g
       id="g1084"
       transform="matrix(0.0125173,0,0,-0.0125173,-131.48643,242.8241)">
      <path
         d="m 16204.5,15598.4 c -10.2,1.1 -50.9,-32.7 -68.4,-42.2 -12.7,-6.8 -101.1,8.1 -145.3,11.5 0,-18.9 7.9,-30.1 7.9,-30.1 l 147.7,-0.3 72.2,39.1 c 0,0 58.7,0.9 76,14.6 4.6,3.6 5.4,15 3.6,29.7 -37.8,-5.4 -87,-23 -93.7,-22.3"
         style="fill:#ff9739;fill-opacity:1;fill-rule:nonzero;stroke:none"
         id="path1086"
         inkscape:connector-curvature="0" />
    </g>
    <path
       d="m 69.661402,47.128413 c -0.637086,0.16647 -0.953757,0.642091 -0.768508,0.714686 0.221535,0.08636 -0.04505,-0.344199 0.768508,-0.714686"
       style="fill:#6d7887;fill-opacity:1;fill-rule:nonzero;stroke:none;stroke-width:0.01251642"
       id="path1088"
       inkscape:connector-curvature="0" />
    <path
       d="m 28.826538,49.719315 c 0,0 0.456853,-0.153951 0.448088,-0.484387 l -0.269101,-0.185243 -0.221541,0.609552 0.04254,0.06009"
       style="fill:#36414f;fill-opacity:1;fill-rule:nonzero;stroke:none;stroke-width:0.01251642"
       id="path1090"
       inkscape:connector-curvature="0" />
    <path
       d="m 30.144521,51.363971 c 0,0 -0.837351,0.351716 -1.107708,0.476875 -0.270353,0.126415 -0.246573,1.102699 -0.523188,1.623381 -0.276613,0.520691 -1.008823,0.254087 -1.008823,0.254087 l -0.598285,-1.836165 0.170222,-1.15401 c 0,0 -0.250327,-0.782278 -0.14519,-1.072656 0.106391,-0.289132 1.863696,-0.346707 1.965082,-0.128925 0.101375,0.219039 0.446832,1.09644 0.843607,1.24038 0.395517,0.145193 0.404283,0.597033 0.404283,0.597033"
       style="fill:#485669;fill-opacity:1;fill-rule:nonzero;stroke:none;stroke-width:0.01251642"
       id="path1092"
       inkscape:connector-curvature="0" />
    <path
       d="m 28.663823,51.905934 c 0.231557,-0.637086 0.667126,-0.817326 0.827339,-1.076415 0.118904,-0.196505 -0.439329,-0.490642 -0.594531,-1.302961 0.160208,0.295388 0.445586,0.684649 0.625823,0.892421 0.05631,0.08886 0.21528,0.175234 0.178983,0.39177 -0.03754,0.211527 -0.356717,0.425554 -0.538208,0.570746 -0.181489,0.151444 -0.349209,0.326677 -0.499406,0.524439"
       style="fill:#36414f;fill-opacity:1;fill-rule:nonzero;stroke:none;stroke-width:0.01251642"
       id="path1094"
       inkscape:connector-curvature="0" />
    <path
       d="m 29.076864,51.927205 -0.416795,-0.533197 -0.08511,0.06385 0.415544,0.566986 0.08635,-0.09762"
       style="fill:#f3eeb5;fill-opacity:1;fill-rule:nonzero;stroke:none;stroke-width:0.01251642"
       id="path1096"
       inkscape:connector-curvature="0" />
    <path
       d="m 28.937934,52.099944 -0.429313,-0.458107 -0.02503,0.06887 0.398027,0.541961 0.0563,-0.152696"
       style="fill:#f3eeb5;fill-opacity:1;fill-rule:nonzero;stroke:none;stroke-width:0.01251642"
       id="path1098"
       inkscape:connector-curvature="0" />
    <path
       d="m 27.434711,50.815755 c 0.06007,0.130171 -0.211527,0.82108 -0.260341,1.097695 -0.03504,0.197753 0.559483,1.301709 0.803557,1.871201 -0.254088,0.08634 -0.439328,0.03254 -0.439328,0.03254 l -0.664625,-1.955064 0.202765,-1.133987 c 0,0 -0.250327,-0.782277 -0.14519,-1.072655 0.02878,-0.0776 0.177734,-0.138936 0.383004,-0.182741 0.09637,0.52569 0.08011,1.256646 0.120158,1.343013"
       style="fill:#d87306;fill-opacity:1;fill-rule:nonzero;stroke:none;stroke-width:0.01251642"
       id="path1100"
       inkscape:connector-curvature="0" />
    <path
       d="m 28.514883,52.442887 c 0.04758,0.734722 -0.34921,1.241629 -0.491899,1.071415 -0.171474,-0.20402 0.385508,-0.07635 0.491899,-1.071415"
       style="fill:#6d7887;fill-opacity:1;fill-rule:nonzero;stroke:none;stroke-width:0.01251642"
       id="path1102"
       inkscape:connector-curvature="0" />
    <path
       d="m 21.871156,55.582017 c 0,0 -0.665873,0.498143 -0.665873,0.788533 0,0.291628 0.332934,0.748478 0.332934,0.748478 l 0.747233,-0.540714 v -0.372986 l -0.414294,-0.623311"
       style="fill:#485669;fill-opacity:1;fill-rule:nonzero;stroke:none;stroke-width:0.01251642"
       id="path1104"
       inkscape:connector-curvature="0" />
    <path
       d="m 22.743552,57.866268 -0.166468,0.249068 0.0826,0.264099 h 0.360472 l 0.125164,-0.256593 c 0,0 -0.236561,-0.256574 -0.401777,-0.256574"
       style="fill:#485669;fill-opacity:1;fill-rule:nonzero;stroke:none;stroke-width:0.01251642"
       id="path1106"
       inkscape:connector-curvature="0" />
    <path
       d="m 19.709568,57.866268 c 0,0 -0.151447,-0.08264 0,0.193999 0.152703,0.276616 0.194005,0.194 0.38801,0.194 0.194004,0 0.456849,-0.36047 0.456849,-0.498144 0,-0.138941 -0.733461,-0.360479 -0.844859,0.110145"
       style="fill:#485669;fill-opacity:1;fill-rule:nonzero;stroke:none;stroke-width:0.01251642"
       id="path1108"
       inkscape:connector-curvature="0" />
    <path
       d="m 50.817911,53.54809 c 0,0 -0.766006,-0.400525 -1.166534,0 -0.400523,0.400525 -0.190248,1.410596 -0.190248,1.410596 l 1.356782,0.443087 0.63208,-1.201576 -0.63208,-0.652107"
       style="fill:#485669;fill-opacity:1;fill-rule:nonzero;stroke:none;stroke-width:0.01251642"
       id="path1110"
       inkscape:connector-curvature="0" />
    <path
       d="m 47.574904,54.385443 c 0,0 -0.637085,-0.230303 -0.443083,0.324176 0.19275,0.553222 0.829842,0.137675 0.829842,0 0,-0.138941 -0.386759,-0.324176 -0.386759,-0.324176"
       style="fill:#485669;fill-opacity:1;fill-rule:nonzero;stroke:none;stroke-width:0.01251642"
       id="path1112"
       inkscape:connector-curvature="0" />
    <path
       d="m 45.358244,56.176542 c 0,0 -0.05503,0.582016 0.360471,0.443076 0.415543,-0.137675 0.609552,-0.886152 -0.360471,-0.443076"
       style="fill:#485669;fill-opacity:1;fill-rule:nonzero;stroke:none;stroke-width:0.01251642"
       id="path1114"
       inkscape:connector-curvature="0" />
    <g
       id="g1116"
       transform="matrix(0.01368447,0,0,-0.01368447,-131.48643,242.8241)">
      <path
         d="m 14937.7,16300 -364.9,-210.1 14.7,-29.7 364.9,210.2 -14.7,29.6"
         style="fill:#563918;fill-opacity:1;fill-rule:nonzero;stroke:none"
         id="path1118"
         inkscape:connector-curvature="0" />
    </g>
    <g
       id="g1120"
       transform="matrix(0.01296252,0,0,-0.01296252,-131.48643,242.8241)">
      <path
         d="m 16137.1,15315.7 c 0,0 5,-51 -12,-82.4 -17.1,-31.3 12.7,-50.2 12.7,-50.2 0,0 141.1,3.6 151.7,11.8 10.5,8.2 -53.1,130.2 -53.1,130.2 l -9.2,9.1 c -24.1,23.8 -63.9,19.9 -83,-8.1 l -7.1,-10.4"
         style="fill:#603e6b;fill-opacity:1;fill-rule:nonzero;stroke:none"
         id="path1122"
         inkscape:connector-curvature="0" />
    </g>
    <g
       id="g1124"
       transform="matrix(0.01296014,0,0,-0.01296014,-131.48643,242.8241)">
      <path
         d="m 16123.4,15211.2 c -5.5,-18.3 9.5,-25 9.5,-25 0,0 149,3.3 159.6,11.5 2.3,1.8 7.5,12.7 -2.3,22.4 -40.8,-4.3 -129.7,-8.1 -166.8,-8.9"
         style="fill:#ff9739;fill-opacity:1;fill-rule:nonzero;stroke:none"
         id="path1126"
         inkscape:connector-curvature="0" />
    </g>
    <g
       id="g1128"
       transform="matrix(0.01290908,0,0,-0.01290908,-131.48643,242.8241)">
      <path
         d="m 16253.1,15343.4 c -18.1,0 -32.9,4.8 -34.1,5.1 -1.6,0.6 -2.5,2.4 -2,4 0.6,1.7 2.3,2.6 4,2 0.5,-0.1 47.2,-15.1 73.4,9 1.2,1.2 3.3,1.2 4.4,-0.1 1.2,-1.3 1.1,-3.3 -0.2,-4.5 -13.1,-12.2 -30.4,-15.5 -45.5,-15.5"
         style="fill:#ffda88;fill-opacity:1;fill-rule:nonzero;stroke:none"
         id="path1130"
         inkscape:connector-curvature="0" />
    </g>
    <g
       id="g1132"
       transform="matrix(0.01290908,0,0,-0.01290908,-131.48643,242.8241)">
      <path
         d="m 16253.1,15322.5 c -18.1,0 -32.9,4.8 -34.1,5.2 -1.6,0.5 -2.5,2.3 -2,4 0.6,1.6 2.3,2.5 4,2 0.5,-0.2 47.2,-15.1 73.4,9 1.2,1.2 3.3,1.1 4.4,-0.2 1.2,-1.2 1.1,-3.2 -0.2,-4.4 -13.1,-12.2 -30.4,-15.6 -45.5,-15.6"
         style="fill:#ffda88;fill-opacity:1;fill-rule:nonzero;stroke:none"
         id="path1134"
         inkscape:connector-curvature="0" />
    </g>
    <g
       id="g1136"
       transform="matrix(0.01294424,0,0,-0.01294424,-131.48643,242.8241)">
      <path
         d="m 16300,15239 c -76.5,25.9 -92,44.9 -151.6,-9.2 34.6,65.3 93.7,54.3 151.6,9.2"
         style="fill:#806588;fill-opacity:1;fill-rule:nonzero;stroke:none"
         id="path1138"
         inkscape:connector-curvature="0" />
    </g>
    <g
       id="g1140"
       transform="matrix(0.01346229,0,0,-0.01346229,-131.48643,242.8241)">
      <path
         d="m 15210.1,16300 c 0,0 -3.8,-48.4 24.6,-85.7 28.4,-37.3 89.4,-63.7 92.1,-60.3 l -22.6,44.3 8.1,89.4 -102.2,12.3"
         style="fill:#55330a;fill-opacity:1;fill-rule:nonzero;stroke:none"
         id="path1142"
         inkscape:connector-curvature="0" />
    </g>
    <g
       id="g1144"
       transform="matrix(0.01355767,0,0,-0.01355767,-131.48643,242.8241)">
      <path
         d="m 15511.2,15487.8 13.3,9.2 -561.8,803 -13.3,-9.3 561.8,-802.9"
         style="fill:#600202;fill-opacity:1;fill-rule:nonzero;stroke:none"
         id="path1146"
         inkscape:connector-curvature="0" />
    </g>
    <g
       id="g1148"
       transform="matrix(0.01355543,0,0,-0.01355543,-131.48643,242.8241)">
      <path
         d="m 15517.5,15492.9 5.7,4 -561.8,803.1 -5.8,-4 561.9,-803.1"
         style="fill:#9e0d0d;fill-opacity:1;fill-rule:nonzero;stroke:none"
         id="path1150"
         inkscape:connector-curvature="0" />
    </g>
    <g
       id="g1152"
       transform="matrix(0.01294561,0,0,-0.01294561,-131.48643,242.8241)">
      <path
         d="m 16279.9,16162.4 20.1,14.1 -46,65.9 -20.1,-14.1 46,-65.9"
         style="fill:#2f2c35;fill-opacity:1;fill-rule:nonzero;stroke:none"
         id="path1154"
         inkscape:connector-curvature="0" />
    </g>
    <g
       id="g1156"
       transform="matrix(0.01294988,0,0,-0.01294988,-131.48643,242.8241)">
      <path
         d="m 16286.1,16147.4 13.9,9.7 -8.4,12 -13.8,-9.8 8.3,-11.9"
         style="fill:#070707;fill-opacity:1;fill-rule:nonzero;stroke:none"
         id="path1158"
         inkscape:connector-curvature="0" />
    </g>
    <g
       id="g1160"
       transform="matrix(0.01301221,0,0,-0.01301221,-131.48643,242.8241)">
      <path
         d="m 16290.2,15957.1 9.8,6.9 -74.8,119.4 -21.5,-15.1 86.5,-111.2"
         style="fill:#2f2c35;fill-opacity:1;fill-rule:nonzero;stroke:none"
         id="path1162"
         inkscape:connector-curvature="0" />
    </g>
    <g
       id="g1164"
       transform="matrix(0.01302373,0,0,-0.01302373,-131.48643,242.8241)">
      <path
         d="m 16300,15918.5 -15.4,30.7 -7.9,-5.5 23.3,-25.2"
         style="fill:#595563;fill-opacity:1;fill-rule:nonzero;stroke:none"
         id="path1166"
         inkscape:connector-curvature="0" />
    </g>
    <g
       id="g1168"
       transform="matrix(0.01373541,0,0,-0.01373541,-131.48643,242.8241)">
      <path
         d="m 14631.8,16247.3 c 8.3,-8.8 15.7,-19.7 15.7,-19.7 10.3,-26.5 34.7,-48.7 34.7,-48.7 18.6,-19.2 27,-41.4 27,-41.4 8.8,-23.9 24.5,-42.4 24.5,-42.4 l 23.8,-17.7 13.1,9.2 -6.9,27.3 -113.8,186.1 -45,-31.5 7.9,-11.3 c 4.5,3.2 12.1,-2.6 19,-9.9"
         style="fill:#070707;fill-opacity:1;fill-rule:nonzero;stroke:none"
         id="path1170"
         inkscape:connector-curvature="0" />
    </g>
    <g
       id="g1172"
       transform="matrix(0.0136911,0,0,-0.0136911,-131.48643,242.8241)">
      <path
         d="m 14781.5,16147.2 c 20.6,20.1 -24.4,89.2 -56.2,124.7 -20.7,23.2 -37.2,27.7 -46,28.1 8.3,-8.8 15.7,-19.8 15.7,-19.8 10.3,-26.6 34.8,-48.8 34.8,-48.8 18.7,-19.3 27.1,-41.6 27.1,-41.6 8.8,-24 24.6,-42.6 24.6,-42.6"
         style="fill:#db0707;fill-opacity:1;fill-rule:nonzero;stroke:none"
         id="path1174"
         inkscape:connector-curvature="0" />
    </g>
    <g
       id="g1176"
       transform="matrix(0.0136906,0,0,-0.0136906,-131.48643,242.8241)">
      <path
         d="m 14707.9,16280 c -8.5,9.4 -16.2,15.8 -23.1,20 9.5,-1.8 23.8,-8.2 41.1,-27.5 31.8,-35.4 76.8,-104.6 56.1,-124.6 0,0 -6.2,7.3 -13,18.7 3.2,27.7 -33.8,83 -61.1,113.4"
         style="fill:#910707;fill-opacity:1;fill-rule:nonzero;stroke:none"
         id="path1178"
         inkscape:connector-curvature="0" />
    </g>
    <g
       id="g1180"
       transform="matrix(0.01293773,0,0,-0.01293773,-131.48643,242.8241)">
      <path
         d="m 16275.2,16210.9 c 10.1,-14.3 20.2,-24.6 22.5,-23 2.3,1.6 -3.9,14.6 -14,28.9 -10,14.4 -20,24.7 -22.4,23 -2.3,-1.6 4,-14.6 13.9,-28.9"
         style="fill:#595563;fill-opacity:1;fill-rule:nonzero;stroke:none"
         id="path1182"
         inkscape:connector-curvature="0" />
    </g>
    <g
       id="g1184"
       transform="matrix(0.01349609,0,0,-0.01349609,-131.48643,242.8241)">
      <path
         d="m 15752.8,15662.9 10.3,12.6 -761,624.5 -10.3,-12.6 761,-624.5"
         style="fill:#600202;fill-opacity:1;fill-rule:nonzero;stroke:none"
         id="path1186"
         inkscape:connector-curvature="0" />
    </g>
    <g
       id="g1188"
       transform="matrix(0.01349309,0,0,-0.01349309,-131.48643,242.8241)">
      <path
         d="m 15759.1,15670 4.5,5.4 -761.2,624.6 -4.4,-5.4 761.1,-624.6"
         style="fill:#9e0d0d;fill-opacity:1;fill-rule:nonzero;stroke:none"
         id="path1190"
         inkscape:connector-curvature="0" />
    </g>
    <g
       id="g1192"
       transform="matrix(0.01309481,0,0,-0.01309481,-131.48643,242.8241)">
      <path
         d="m 16284.6,16097.7 15.4,18.8 -61.5,50.4 -15.3,-18.7 61.4,-50.5"
         style="fill:#2f2c35;fill-opacity:1;fill-rule:nonzero;stroke:none"
         id="path1194"
         inkscape:connector-curvature="0" />
    </g>
    <g
       id="g1196"
       transform="matrix(0.01310182,0,0,-0.01310182,-131.48643,242.8241)">
      <path
         d="m 16289.4,16082.8 10.6,12.9 -11.2,9.2 -10.6,-13 11.2,-9.1"
         style="fill:#070707;fill-opacity:1;fill-rule:nonzero;stroke:none"
         id="path1198"
         inkscape:connector-curvature="0" />
    </g>
    <g
       id="g1200"
       transform="matrix(0.01318681,0,0,-0.01318681,-131.48643,242.8241)">
      <path
         d="m 16292.5,15893.7 7.5,9.1 -102.9,93.5 -16.4,-20 111.8,-82.6"
         style="fill:#2f2c35;fill-opacity:1;fill-rule:nonzero;stroke:none"
         id="path1202"
         inkscape:connector-curvature="0" />
    </g>
    <g
       id="g1204"
       transform="matrix(0.01320458,0,0,-0.01320458,-131.48643,242.8241)">
      <path
         d="m 16300,15855.4 -22.7,25 -6,-7.2 28.7,-17.8"
         style="fill:#595563;fill-opacity:1;fill-rule:nonzero;stroke:none"
         id="path1206"
         inkscape:connector-curvature="0" />
    </g>
    <g
       id="g1208"
       transform="matrix(0.01364028,0,0,-0.01364028,-131.48643,242.8241)">
      <path
         d="m 14667.5,16244 c 10.5,-6.2 20.6,-14.9 20.6,-14.9 17.2,-22.8 46.9,-37.7 46.9,-37.7 23.2,-13.6 37.3,-32.9 37.3,-32.9 15.2,-20.8 35.4,-34.4 35.4,-34.4 l 27.9,-10.7 10.1,12.5 -14.1,24.6 -160.9,149.5 -35.1,-42.8 10.7,-8.8 c 3.6,4.4 12.5,0.8 21.2,-4.4"
         style="fill:#070707;fill-opacity:1;fill-rule:nonzero;stroke:none"
         id="path1210"
         inkscape:connector-curvature="0" />
    </g>
    <g
       id="g1212"
       transform="matrix(0.0135951,0,0,-0.0135951,-131.48643,242.8241)">
      <path
         d="m 14856.8,16177.5 c 14.5,25.1 -47.8,79.9 -88.3,105.7 -26.5,16.8 -43.7,16.7 -52.3,14.7 10.5,-6.3 20.6,-14.9 20.6,-14.9 17.2,-23 47.1,-37.9 47.1,-37.9 23.2,-13.6 37.4,-33 37.4,-33 15.2,-20.8 35.5,-34.6 35.5,-34.6"
         style="fill:#db0707;fill-opacity:1;fill-rule:nonzero;stroke:none"
         id="path1214"
         inkscape:connector-curvature="0" />
    </g>
    <g
       id="g1216"
       transform="matrix(0.01359473,0,0,-0.01359473,-131.48643,242.8241)">
      <path
         d="m 14749.4,16286.1 c -10.7,6.8 -19.9,10.8 -27.7,13.1 9.6,0.8 25.2,-1.5 47.3,-15.5 40.5,-25.7 102.8,-80.5 88.2,-105.6 0,0 -8,5.4 -17.7,14.6 -4.4,27.7 -55.3,71.3 -90.1,93.4"
         style="fill:#910707;fill-opacity:1;fill-rule:nonzero;stroke:none"
         id="path1218"
         inkscape:connector-curvature="0" />
    </g>
    <g
       id="g1220"
       transform="matrix(0.01308656,0,0,-0.01308656,-131.48643,242.8241)">
      <path
         d="m 16270.7,16140.7 c 13.4,-10.9 25.7,-18.1 27.5,-15.9 1.8,2.2 -7.6,12.9 -21,23.9 -13.4,10.9 -25.7,18.1 -27.4,15.9 -1.8,-2.2 7.5,-12.9 20.9,-23.9"
         style="fill:#595563;fill-opacity:1;fill-rule:nonzero;stroke:none"
         id="path1222"
         inkscape:connector-curvature="0" />
    </g>
    <g
       id="g1224"
       transform="matrix(0.01341763,0,0,-0.01341763,-131.48643,242.8241)">
      <path
         d="m 15311.8,16260.7 c 0,0 -14,28.3 -35.1,33.8 -21.2,5.5 -97.5,-40.2 -94.2,-48.9 3.2,-8.8 26.2,-12.8 21.7,-20.8 -4.6,-7.9 12.5,-8.2 16,-20.6 6.8,-24.4 18.1,-23.3 23.9,-26.6 5.9,-3.4 95.2,9.5 67.7,83.1"
         style="fill:#fc7575;fill-opacity:1;fill-rule:nonzero;stroke:none"
         id="path1226"
         inkscape:connector-curvature="0" />
    </g>
    <g
       id="g1228"
       transform="matrix(0.01344276,0,0,-0.01344276,-131.48643,242.8241)">
      <path
         d="m 15283.8,16300 -40.3,-44.6 37.8,-54.4 56.3,51.1 -53.8,47.9"
         style="fill:#fc7575;fill-opacity:1;fill-rule:nonzero;stroke:none"
         id="path1230"
         inkscape:connector-curvature="0" />
    </g>
    <g
       id="g1232"
       transform="matrix(0.01391514,0,0,-0.01391514,-131.48643,242.8241)">
      <path
         d="m 14584.5,16300 c 0,0 397.1,-71.3 486.8,-161 89.8,-89.8 -243.4,-510.7 -243.4,-510.7 l -37.8,76.6 c -7.4,15.2 -18.9,28.1 -33.1,37.3 l -42,27.3 c 0,0 151.5,209.4 151.5,261.3 0,51.9 -132.6,14.9 -132.6,14.9 0,0 -195.7,203.9 -149.4,254.3"
         style="fill:#f9a94b;fill-opacity:1;fill-rule:nonzero;stroke:none"
         id="path1234"
         inkscape:connector-curvature="0" />
    </g>
    <path
       d="m 36.58923,104.10447 0.0029,0.003 0.0051,0.003 z"
       style="fill:#d29d8c;fill-opacity:1;fill-rule:nonzero;stroke:none;stroke-width:0.01251642"
       id="path2752"
       inkscape:connector-curvature="0" />
  </g>
</svg>
