<?xml version="1.0" encoding="UTF-8" standalone="no"?>
<svg
   xmlns:dc="http://purl.org/dc/elements/1.1/"
   xmlns:cc="http://creativecommons.org/ns#"
   xmlns:rdf="http://www.w3.org/1999/02/22-rdf-syntax-ns#"
   xmlns:svg="http://www.w3.org/2000/svg"
   xmlns="http://www.w3.org/2000/svg"
   id="svg5750"
   version="1.1"
   viewBox="0 0 174.49126 174.49057"
   height="174.49057mm"
   width="174.49126mm">
  <defs
     id="defs5744" />
  <metadata
     id="metadata5747">
    <rdf:RDF>
      <cc:Work
         rdf:about="">
        <dc:format>image/svg+xml</dc:format>
        <dc:type
           rdf:resource="http://purl.org/dc/dcmitype/StillImage" />
        <dc:title></dc:title>
      </cc:Work>
    </rdf:RDF>
  </metadata>
  <g
     transform="translate(-1.2008375,-1.1118524)"
     id="layer1">
    <g
       transform="matrix(0.05306589,0,0,-0.05306589,-689.28191,224.7936)"
       id="g254">
      <path
         id="path256"
         style="fill:#de9415;fill-opacity:1;fill-rule:nonzero;stroke:none"
         d="m 16300,2571.08 c 0,-908.04 -736.1,-1644.097 -1644.1,-1644.097 -908,0 -1644.1,736.057 -1644.1,1644.097 0,907.97 736.1,1644.09 1644.1,1644.09 908,0 1644.1,-736.12 1644.1,-1644.09" />
    </g>
    <g
       transform="matrix(0.05086844,0,0,-0.05086844,-689.28191,224.7936)"
       id="g1916">
      <path
         id="path1918"
         style="fill:#ffffff;fill-opacity:1;fill-rule:nonzero;stroke:none"
         d="m 14476.2,2115.55 c 23.2,29.69 63.9,38.91 90.9,20.74 l 122,-82.6 c 26.9,-18.24 29.9,-57 6.7,-86.61 l -167.7,-214.09 c 113.1,-15.68 243.3,23.37 348.8,115.47 25,21.84 47.2,45.49 66.6,70.39 0.3,0.27 0.5,0.49 0.7,0.69 13.2,14.84 23.6,31.21 31.9,47.64 8.5,16.93 14,34.82 17.3,52.3 v 0 c 1.6,12.27 3.6,22.82 3.5,34.26 3,31.62 8.1,77.67 13.9,105.41 9.7,45.49 42.3,105.97 42.3,105.97 l 306.6,267.83 0.5,-0.55 302.9,263.74 c 0,0 74.1,57.7 148.4,59.5 74.3,1.87 133.1,-2.15 133.1,-2.15 v 0.07 c 36,-3.05 74.8,5.83 109.9,25.38 20.9,11.65 39.9,26.5 56.9,45.5 0.1,0.07 0.1,0.07 0.1,0.07 143,132.39 188.5,324.42 116.2,461.6 l -168.1,-213.95 c -23.3,-29.61 -63.9,-38.84 -90.8,-20.6 l -122,82.81 c -26.9,18.24 -29.8,57.01 -6.5,86.62 l 168,213.81 c -113.1,15.81 -243.4,-22.96 -349,-114.92 -25,-21.84 -47.3,-45.42 -66.8,-70.32 -0.2,-0.28 -0.4,-0.48 -0.6,-0.69 -13.3,-14.85 -23.7,-31.14 -32,-47.58 -8.5,-16.92 -14.1,-34.81 -17.4,-52.22 V 3269 c -1.5,-12.27 -3.6,-22.75 -3.5,-34.19 -3.1,-31.69 -8.2,-77.67 -14.1,-105.41 -9.7,-45.5 -42.4,-105.9 -42.4,-105.9 l -307.3,-267.63 -0.6,0.56 -302.4,-264.23 c 0,0 -74.1,-57.84 -148.3,-59.78 -74.3,-1.94 -133.1,2.01 -133.1,2.01 v -0.07 c -36.1,2.98 -74.9,-5.96 -109.9,-25.59 -21,-11.65 -39.9,-26.56 -56.8,-45.56 -0.1,-0.07 -0.1,-0.07 -0.2,-0.07 -142.8,-132.6 -187.9,-324.7 -115.5,-461.74 l 167.8,214.15" />
    </g>
    <g
       transform="matrix(0.04851506,0,0,-0.04851506,-689.28191,224.7936)"
       id="g1920">
      <path
         id="path1922"
         style="fill:#ffffff;fill-opacity:1;fill-rule:nonzero;stroke:none"
         d="m 15321,3864.36 19.9,-17.52 164.7,-148.27 c 48,-42.9 63,-100.93 51.3,-150.15 l 743.1,-842.48 -96.6,-89.51 -743.8,843.42 c -49.6,-6.18 -105.8,15.42 -142.3,66.32 l -122.2,186.44 -14.6,22.32 140.5,129.43" />
    </g>
    <g
       transform="matrix(0.05080917,0,0,-0.05080917,-689.28191,224.7936)"
       id="g1924">
      <path
         id="path1926"
         style="fill:#ffffff;fill-opacity:1;fill-rule:nonzero;stroke:none"
         d="m 15530.8,2596.81 55.2,50.76 c 12.9,11.87 34.2,10.83 48.7,-5.69 l 6.7,-7.57 c 0.8,-0.91 1.2,-2.22 1.9,-3.19 0.3,-0.35 0.3,-0.91 0.6,-1.26 0.4,-0.62 0.7,-1.31 1.1,-1.94 0.3,-0.49 0.6,-0.9 0.9,-1.39 0.3,-0.48 0.5,-1.11 0.9,-1.59 0.3,-0.56 0.5,-1.04 0.8,-1.6 0,-0.07 0.1,-0.21 0.1,-0.28 0.8,-1.59 1.5,-3.19 2.1,-4.79 0,-0.21 0.1,-0.35 0.2,-0.49 0.3,-0.83 0.5,-1.66 0.7,-2.5 v 0 c 0.1,-0.13 0.1,-0.2 0.1,-0.34 0.2,-0.42 0.2,-0.84 0.4,-1.25 l 0.8,-0.97 c 0.1,-0.21 1.1,-1.6 1,-1.74 l 7.6,7.01 c 7.3,6.67 19.1,6.74 27.3,-2.5 l 539.5,-612.59 c 64.2,-72.84 72.6,-178.86 15.6,-231.35 l -66.7,-61.38 c -57,-52.49 -158.8,-32.49 -223,40.34 l -539.6,612.6 c -8.1,9.3 -7.3,20.9 0,27.56 l 11,10.14 v 0.07 c -0.2,-0.21 -2,1.32 -2.6,1.6 -0.3,0.06 -0.9,0.62 -1.2,0.76 -0.7,0.28 -1.5,0.77 -2.1,1.11 -0.4,0.14 -0.8,0.42 -1.1,0.62 -0.8,0.42 -1.7,0.91 -2.5,1.4 -0.7,0.41 -1.4,0.83 -2,1.24 -0.4,0.28 -0.8,0.63 -1.2,0.91 -0.6,0.41 -1.1,0.83 -1.7,1.25 -0.3,0.35 -0.7,0.62 -1.1,0.9 -0.6,0.55 -1.2,1.04 -1.7,1.6 -0.4,0.28 0,1.11 -0.3,1.38 -0.9,0.84 -1.1,2.3 -2,3.27 l -6.6,7.57 c -13.7,15.48 -15.2,34.02 -4.7,46.03 l 32.8,30.41 19.9,18.4 -0.1,0.07 84,77.83 0.3,-0.42" />
    </g>
    <g
       transform="matrix(0.05053647,0,0,-0.05053647,-689.28191,224.7936)"
       id="g1928">
      <path
         id="path1930"
         style="fill:#de9415;fill-opacity:1;fill-rule:nonzero;stroke:none"
         d="m 16229.4,1895.18 c 16.4,-18.5 41.6,-22.41 56.2,-9.07 14.4,13.33 13.3,39.51 -3.1,58.01 l -494.3,561.24 c -16.3,18.5 -41.6,22.34 -56.1,9.01 -14.4,-13.34 -13.3,-39.44 3,-57.94 l 494.3,-561.25" />
    </g>
    <g
       transform="matrix(0.05016324,0,0,-0.05016324,-689.28191,224.7936)"
       id="g1932">
      <path
         id="path1934"
         style="fill:#de9415;fill-opacity:1;fill-rule:nonzero;stroke:none"
         d="m 16229.7,1798.38 c 16.4,-18.64 41.1,-23.28 55.7,-9.85 14.6,13.43 12.6,38.96 -3.8,57.59 l -498.1,565.43 c -16.4,18.63 -41,23.34 -55.6,9.91 -14.6,-13.43 -12.7,-39.03 3.8,-57.6 l 498,-565.48" />
    </g>
  </g>
</svg>
