<?xml version="1.0" encoding="UTF-8" standalone="no"?>
<svg
   xmlns:dc="http://purl.org/dc/elements/1.1/"
   xmlns:cc="http://creativecommons.org/ns#"
   xmlns:rdf="http://www.w3.org/1999/02/22-rdf-syntax-ns#"
   xmlns:svg="http://www.w3.org/2000/svg"
   xmlns="http://www.w3.org/2000/svg"
   id="svg5935"
   version="1.1"
   viewBox="0 0 174.48734 174.48734"
   height="174.48734mm"
   width="174.48734mm">
  <defs
     id="defs5929" />
  <metadata
     id="metadata5932">
    <rdf:RDF>
      <cc:Work
         rdf:about="">
        <dc:format>image/svg+xml</dc:format>
        <dc:type
           rdf:resource="http://purl.org/dc/dcmitype/StillImage" />
        <dc:title></dc:title>
      </cc:Work>
    </rdf:RDF>
  </metadata>
  <g
     transform="translate(-0.44687292,-0.35746981)"
     id="layer1">
    <g
       transform="matrix(0.0925957,0,0,-0.0925957,-1334.3757,1507.5099)"
       id="g82">
      <path
         id="path84"
         style="fill:#ce4620;fill-opacity:1;fill-rule:nonzero;stroke:none"
         d="m 16300,15334.5 c 0,-520.3 -421.9,-942.2 -942.2,-942.2 -520.4,0 -942.2,421.9 -942.2,942.2 0,520.4 421.8,942.2 942.2,942.2 520.3,0 942.2,-421.8 942.2,-942.2" />
    </g>
    <g
       transform="matrix(0.08711635,0,0,-0.08711635,-1334.3757,1507.5099)"
       id="g594">
      <path
         id="path596"
         style="fill:#ffffff;fill-opacity:1;fill-rule:nonzero;stroke:none"
         d="m 16061.8,15992.8 c 43.9,20.3 90.1,34.8 137.7,45 5,1 9.5,1.9 13.6,2.7 28.5,5.4 54.5,8.9 86.9,10.5 v 225.4 h -279.1 c 2,-101.2 16.1,-198.1 40.9,-283.6" />
    </g>
    <g
       transform="matrix(0.09018622,0,0,-0.09018622,-1334.3757,1507.5099)"
       id="g598">
      <path
         id="path600"
         style="fill:#ffffff;fill-opacity:1;fill-rule:nonzero;stroke:none"
         d="m 16044,16086.4 c 5.5,2.7 10.9,5.5 16.3,8.4 3.5,1.9 7.2,3.9 11.3,6.2 32.4,18.4 63,39.9 91.5,64 -68,64 -148.9,110 -237.4,135 27.9,-29.5 53.7,-67.1 76.5,-112.2 15.9,-31.3 29.9,-65.3 41.8,-101.4" />
    </g>
    <g
       transform="matrix(0.09030476,0,0,-0.09030476,-1334.3757,1507.5099)"
       id="g602">
      <path
         id="path604"
         style="fill:#ffffff;fill-opacity:1;fill-rule:nonzero;stroke:none"
         d="m 15675.6,16296 c -49.6,-25.5 -95.4,-77.4 -133.1,-152.3 -13,-25.9 -24.7,-53.9 -34.9,-83.5 40.6,-19.3 83.2,-33.9 127.2,-43.4 4.1,-0.9 8.2,-1.7 12.5,-2.6 25.4,-4.9 49.8,-8.1 77.2,-9.7 v 295.5 c -3.9,-0.1 -3,-0.1 -4.4,-0.2 -14.9,-0.6 -29.8,-1.9 -44.5,-3.8" />
    </g>
    <g
       transform="matrix(0.08711635,0,0,-0.08711635,-1334.3757,1507.5099)"
       id="g606">
      <path
         id="path608"
         style="fill:#ffffff;fill-opacity:1;fill-rule:nonzero;stroke:none"
         d="m 16207.1,15995 c -45.7,-9.8 -89.9,-25 -132,-45 10.7,-30.6 22.7,-59.6 36.3,-86.5 39,-77.7 86.5,-131.5 137.9,-157.9 15.3,-1.9 30.7,-3.3 46,-4 1.5,-0.1 0.7,-0.1 4.7,-0.2 v 306.3 c -28.3,-1.6 -53.7,-4.9 -80,-10 -4.5,-0.9 -8.8,-1.8 -12.9,-2.7" />
    </g>
    <g
       transform="matrix(0.08875218,0,0,-0.08875218,-1334.3757,1507.5099)"
       id="g610">
      <path
         id="path612"
         style="fill:#ffffff;fill-opacity:1;fill-rule:nonzero;stroke:none"
         d="m 15900.8,16255.1 c -46.7,9.9 -91.9,24.9 -135,44.9 -24.5,-84.6 -38.4,-180.5 -40.1,-279.9 h 273.9 v 221.9 c -31.8,1.6 -57.4,5 -85.4,10.4 -4,0.7 -8.4,1.6 -13.4,2.7" />
    </g>
    <g
       transform="matrix(0.08934309,0,0,-0.08934309,-1334.3757,1507.5099)"
       id="g614">
      <path
         id="path616"
         style="fill:#ffffff;fill-opacity:1;fill-rule:nonzero;stroke:none"
         d="m 15628.6,16208.6 c -7.3,3.9 -14.5,8 -21.7,12.2 -3.8,2.2 -7.6,4.5 -11.7,7 -33.8,20.9 -65.9,45.1 -95.6,72.2 -102.1,-104.4 -160.5,-239.7 -165.7,-385.8 h 252.1 c 1.7,106.6 16.5,205.3 42.6,294.4" />
    </g>
    <g
       transform="matrix(0.08636846,0,0,-0.08636846,-1334.3757,1507.5099)"
       id="g618">
      <path
         id="path620"
         style="fill:#ffffff;fill-opacity:1;fill-rule:nonzero;stroke:none"
         d="m 16180.5,16070.8 c -5.2,-2.9 -10.3,-5.8 -15.5,-8.8 -3.8,-2.3 -7.6,-4.7 -11.5,-7 -31.5,-19.6 -61.2,-42.1 -88.8,-67 66.5,-58.8 146.3,-103.2 235.3,-128.3 -29.2,30.9 -56.1,70.1 -79.9,117.3 -14.8,29.1 -28,60.5 -39.6,93.8" />
    </g>
    <g
       transform="matrix(0.08699006,0,0,-0.08699006,-1334.3757,1507.5099)"
       id="g622">
      <path
         id="path624"
         style="fill:#ffffff;fill-opacity:1;fill-rule:nonzero;stroke:none"
         d="m 16029.1,15986.2 c 7.3,4.3 14.7,8.9 22.2,12.9 -26.6,90.9 -41.7,191.4 -43.7,300.9 h -258.8 c 6,-154.1 68.9,-292.1 169.5,-395.2 30.6,28.1 63.7,52.4 98.7,74 4.2,2.5 8.2,5.2 12.1,7.4" />
    </g>
    <g
       transform="matrix(0.09018587,0,0,-0.09018587,-1334.3757,1507.5099)"
       id="g626">
      <path
         id="path628"
         style="fill:#ffffff;fill-opacity:1;fill-rule:nonzero;stroke:none"
         d="m 15480.8,16106.5 c 4.9,-2.9 9.9,-5.7 14.8,-8.5 11.1,31.9 23.7,62 37.9,89.9 22.8,45 48.5,82.6 76.4,112.1 -82.8,-23.5 -159.3,-65.4 -224.5,-123.3 26.2,-23.6 54.5,-45 84.4,-63.5 3.7,-2.3 7.3,-4.5 11,-6.7" />
    </g>
    <g
       transform="matrix(0.09043564,0,0,-0.09043564,-1334.3757,1507.5099)"
       id="g630">
      <path
         id="path632"
         style="fill:#ffffff;fill-opacity:1;fill-rule:nonzero;stroke:none"
         d="m 16012.3,15401.2 c 7.5,-3.7 14.9,-8.3 22.2,-12.2 4.3,-2.3 8.2,-4.4 11.9,-6.5 36.2,-20.4 70.5,-43.8 102.3,-71.2 89.9,97.7 145.7,223.4 151.3,367.7 h -249 c -1.8,-101.4 -15.2,-193.4 -38.7,-277.8" />
    </g>
    <g
       transform="matrix(0.09030511,0,0,-0.09030511,-1334.3757,1507.5099)"
       id="g634">
      <path
         id="path636"
         style="fill:#ffffff;fill-opacity:1;fill-rule:nonzero;stroke:none"
         d="m 15860.4,16011.9 c 44.8,7.7 88.2,20.5 129.7,38.2 -11,33.3 -23.8,64.7 -38.4,93.6 -37.7,74.9 -83.8,126.8 -133.4,152.3 -14.8,1.8 -30,3.1 -44.8,3.8 -1.7,0.1 -6.1,0.1 -6.1,0.2 v -296.4 c 27.4,0.4 53.9,2.4 79.8,6.3 4.5,0.7 9.3,1.3 13.2,2" />
    </g>
    <g
       transform="matrix(0.08943234,0,0,-0.08943234,-1334.3757,1507.5099)"
       id="g638">
      <path
         id="path640"
         style="fill:#ffffff;fill-opacity:1;fill-rule:nonzero;stroke:none"
         d="m 16195.7,15523.4 c -5.4,2.9 -10.9,5.7 -16.4,8.5 -12.1,-36.5 -26.2,-70.8 -42.2,-102.3 -23,-45.5 -49,-83.5 -77.1,-113.2 91.7,25.8 173.4,73 240,135.5 -28.9,24.7 -60,46.6 -92.9,65.2 -4.1,2.3 -7.8,4.4 -11.4,6.3" />
    </g>
    <g
       transform="matrix(0.09043635,0,0,-0.09043635,-1334.3757,1507.5099)"
       id="g642">
      <path
         id="path644"
         style="fill:#ffffff;fill-opacity:1;fill-rule:nonzero;stroke:none"
         d="m 16046.2,16019 c -3.7,-2.1 -7.6,-4.2 -11.8,-6.5 -7.3,-3.9 -14.8,-7.7 -22.2,-11.3 23.7,-85.2 37.1,-181.9 38.7,-279.4 h 249.1 c -5,136.5 -58.5,267.3 -151.9,368.7 -31.7,-27.2 -65.8,-51.2 -101.9,-71.5" />
    </g>
    <g
       transform="matrix(0.08885872,0,0,-0.08885872,-1334.3757,1507.5099)"
       id="g646">
      <path
         id="path648"
         style="fill:#ffffff;fill-opacity:1;fill-rule:nonzero;stroke:none"
         d="m 16262.6,16270.1 c -44.2,-18.3 -90.6,-31.6 -138.2,-39.6 -3.8,-0.7 -8.5,-1.4 -13.7,-2.1 -28.2,-4.2 -58.9,-6.4 -86.7,-6.8 v -220.7 h 276 c -1.7,95.3 -14.7,187.3 -37.4,269.2" />
    </g>
    <g
       transform="matrix(0.08885872,0,0,-0.08885872,-1334.3757,1507.5099)"
       id="g650">
      <path
         id="path652"
         style="fill:#ffffff;fill-opacity:1;fill-rule:nonzero;stroke:none"
         d="m 16125,15728.7 c 47.5,-7.9 93.7,-20.8 137.9,-39.2 22.5,81.3 35.3,172.5 37.1,267.8 h -275.9 v -220.1 c 27.8,-0.4 58.5,-2.4 86.6,-6.5 5.2,-0.8 10.3,-1.3 14.3,-2" />
    </g>
    <g
       transform="matrix(0.08858708,0,0,-0.08858708,-1334.3757,1507.5099)"
       id="g654">
      <path
         id="path656"
         style="fill:#ffffff;fill-opacity:1;fill-rule:nonzero;stroke:none"
         d="m 16300,15695.5 c -42.4,18 -86.8,31.1 -132.3,38.9 -4.1,0.7 -8.7,1.4 -13.2,2 -26.4,4 -53.5,6.1 -81.3,6.5 v -302.2 c 0,0.1 4.4,0.1 6.1,0.2 15.1,0.7 30.6,2 45.6,3.9 50.6,26 97.6,78.9 136,155.3 14.8,29.4 27.8,61.4 39.1,95.4" />
    </g>
  </g>
</svg>
